<svg version="1.1" id="Layer_1" xmlns="http://www.w3.org/2000/svg" xmlns:xlink="http://www.w3.org/1999/xlink" x="0px" y="0px"
	 width="128" height="128" viewBox="0 0 1600 424" enable-background="new 0 0 1600 424" xml:space="preserve">
<path fill="#F7F6F7" opacity="1.000000" stroke="none" 
	d="
M1.000000,416.000000 
	C1.000000,284.642578 1.000000,153.285187 1.454892,21.588575 
	C4.575021,21.274029 7.240258,21.320253 9.905495,21.320271 
	C382.786407,21.322710 755.667297,21.322327 1128.548218,21.305243 
	C1130.363159,21.305159 1132.177979,21.066147 1134.328613,20.714584 
	C1135.235229,12.081385 1135.235229,12.088615 1126.843262,12.088715 
	C799.721069,12.092567 472.598877,12.099025 145.476700,12.093229 
	C97.317802,12.092377 49.158901,12.032544 1.000000,12.000000 
	C1.000000,8.334352 1.000000,4.668703 1.000000,1.001527 
	C510.690765,1.000000 1020.381531,1.000000 1530.352173,1.344079 
	C1492.893311,6.944816 1469.033447,43.547157 1479.647949,81.041916 
	C1487.361450,108.289330 1514.561035,128.207275 1544.830566,125.039993 
	C1568.818115,122.530029 1585.756836,110.292084 1596.009033,88.644135 
	C1597.944336,84.558022 1599.350098,80.221184 1601.000000,76.000000 
	C1601.000000,116.690742 1601.000000,157.381485 1600.665283,198.348450 
	C1594.452881,164.723862 1559.836304,141.933044 1526.147949,149.442581 
	C1497.438965,155.842133 1474.239990,182.597641 1477.594482,216.522125 
	C1479.081421,231.560577 1484.883301,244.379990 1495.486938,254.734512 
	C1524.669434,283.231537 1571.531738,277.198334 1592.633545,242.254593 
	C1596.218750,236.317383 1598.250488,229.441940 1601.000000,222.999985 
	C1601.000000,263.690735 1601.000000,304.381500 1600.664795,345.360840 
	C1593.558838,310.598480 1560.717041,290.079376 1528.139771,296.312836 
	C1490.510132,303.513062 1469.692749,339.134949 1479.625610,375.360413 
	C1486.174072,399.242584 1508.953125,417.935974 1534.350708,419.600281 
	C1559.511597,421.249054 1583.017090,408.736755 1594.464600,386.272217 
	C1597.107910,381.085022 1598.845581,375.436310 1601.000000,370.000000 
	C1601.000000,388.318268 1601.000000,406.636536 1601.000000,425.000000 
	C1445.975952,425.000000 1290.951782,425.000000 1135.416260,424.548096 
	C1134.904907,421.506104 1134.904907,418.915985 1134.904907,416.029938 
	C1132.155518,416.029938 1130.176270,416.029968 1128.197021,416.029938 
	C955.576782,416.027344 782.956482,416.026428 610.336243,416.021729 
	C407.224152,416.016174 204.112076,416.007385 1.000000,416.000000 
M820.978455,94.632874 
	C821.285583,94.851158 821.592773,95.069443 822.159607,95.901855 
	C824.052246,98.954590 825.944946,102.007317 827.878784,105.987465 
	C827.909546,107.816757 827.966553,109.646034 827.967163,111.475334 
	C827.974182,132.610260 827.957275,153.745224 827.999695,174.880081 
	C828.003479,176.779297 827.004578,179.718597 831.870544,178.941315 
	C838.263977,178.889450 844.657410,178.837570 851.502563,178.912048 
	C851.502563,178.912048 851.958801,178.803085 852.624084,178.943222 
	C853.073364,178.899582 853.522705,178.855942 854.834839,178.911209 
	C855.223328,178.300919 855.959045,177.685608 855.950256,177.081085 
	C855.577942,151.414642 855.139282,125.749184 854.728577,99.346283 
	C853.381653,95.640427 852.367554,91.769020 850.622681,88.261124 
	C846.176392,79.322220 839.983826,72.074112 829.431152,68.363319 
	C828.443787,68.237335 827.456604,68.002274 826.469116,68.001427 
	C805.472656,67.983292 784.476135,67.986763 763.479675,68.013367 
	C762.712585,68.014343 761.945862,68.292595 761.353333,68.407738 
	C761.353333,75.809853 761.353333,82.892845 761.353333,90.195335 
	C776.188599,90.195335 790.676880,90.267311 805.163696,90.156792 
	C810.324280,90.117424 815.427002,89.897392 819.892334,93.138107 
	C819.892334,93.138107 819.768860,93.116661 819.956360,93.648926 
	C820.271851,93.837311 820.587341,94.025688 820.924622,94.080879 
	C820.924622,94.080879 820.789917,94.089119 820.978455,94.632874 
M436.055237,79.945343 
	C436.055237,79.945343 436.142212,79.932251 435.964294,79.418877 
	C435.678833,79.213333 435.393341,79.007790 435.118103,78.898102 
	C435.118103,78.898102 435.201782,78.850273 435.068451,78.241547 
	C434.370911,77.520348 433.673370,76.799141 432.723663,75.558823 
	C432.194366,75.358513 431.665070,75.158203 430.935974,74.450653 
	C430.646271,74.248627 430.356567,74.046600 430.060577,73.939560 
	C430.060577,73.939560 430.154236,73.922447 429.952026,73.420471 
	C429.631409,73.287453 429.310822,73.154434 428.995209,72.996864 
	C428.995209,72.996864 428.975708,73.015648 428.608002,72.567551 
	C428.087067,72.330276 427.566162,72.093002 427.040100,71.951157 
	C427.040100,71.951157 427.134888,71.939011 426.933960,71.409966 
	C426.612732,71.256592 426.291504,71.103218 425.789093,70.768867 
	C425.789093,70.768867 425.558197,70.879547 425.192596,70.377342 
	C424.804291,70.262886 424.415955,70.148422 423.812073,69.811386 
	C423.812073,69.811386 423.503143,69.834885 422.904480,69.249695 
	C420.487366,68.821945 418.072083,68.035652 415.652802,68.023148 
	C396.181122,67.922585 376.708679,67.967812 357.236450,67.968475 
	C355.614929,67.968529 353.993439,67.968475 352.060699,67.968475 
	C352.163910,70.007889 352.238037,71.472443 352.181549,73.642715 
	C352.227112,74.116875 352.272675,74.591034 352.127960,75.956589 
	C352.378601,79.827690 352.629242,83.698792 352.361267,87.796043 
	C352.345154,88.163216 352.329041,88.530388 352.188293,89.420937 
	C352.789673,89.616310 353.391022,89.811684 354.918854,90.170570 
	C370.358887,90.180359 385.799133,90.149117 401.238647,90.245079 
	C403.502838,90.259155 405.763275,90.878075 408.427399,91.722519 
	C415.753632,97.039650 419.476196,103.740822 419.226959,113.276474 
	C418.704742,133.258255 419.066498,153.263138 419.065338,173.258530 
	C419.065247,175.022903 419.065338,176.787277 419.065338,178.752533 
	C428.880707,178.752533 437.972290,178.752533 447.147888,178.752533 
	C447.397400,177.933487 447.758270,177.309677 447.751617,176.689789 
	C447.497314,152.929474 447.535278,129.158859 446.758514,105.414993 
	C446.465240,96.449234 443.154419,87.994194 436.955811,80.426682 
	C436.658325,80.237045 436.360840,80.047409 436.055237,79.945343 
M150.083267,71.916542 
	C150.083267,71.916542 150.193115,71.884010 149.974823,71.408348 
	C149.653549,71.310638 149.332275,71.212929 148.695801,70.902832 
	C148.695801,70.902832 148.315903,70.891083 148.021439,70.424828 
	C147.683167,70.312241 147.344879,70.199646 146.758774,69.853378 
	C146.758774,69.853378 146.418152,69.852478 145.838913,69.269974 
	C143.600952,68.835831 141.364319,68.032272 139.124832,68.024200 
	C114.357231,67.934860 89.589180,67.964134 64.821266,67.982079 
	C63.384968,67.983124 61.948803,68.163315 60.558674,68.257034 
	C60.558674,75.986618 60.558674,83.344719 60.558674,90.808960 
	C66.301140,90.808960 71.607109,90.808960 77.357018,91.026642 
	C77.357018,91.026642 77.843285,91.116180 77.843292,92.033974 
	C77.903679,112.676033 77.964073,133.318085 77.842674,154.661667 
	C76.106834,157.138550 74.612320,161.446045 72.585190,161.713287 
	C68.292702,162.279160 63.722313,160.737000 58.882256,160.001022 
	C58.882256,164.602890 59.048290,169.886047 58.815491,175.151596 
	C58.690300,177.983170 59.755291,179.257263 62.357204,180.072418 
	C80.983139,185.907776 95.753021,180.804611 103.079834,159.150696 
	C103.459938,157.718369 104.170769,156.285950 104.170448,154.853699 
	C104.165703,133.908234 104.066032,112.962776 104.519432,91.344063 
	C111.820915,91.252144 119.171486,90.584396 126.412529,91.201599 
	C137.622070,92.157066 144.139801,99.980034 144.145264,111.264076 
	C144.155243,131.901154 144.151474,152.538239 144.153381,173.175323 
	C144.153534,174.952927 144.153397,176.730515 144.153397,178.676727 
	C152.963974,178.676727 161.181686,178.676727 169.282684,178.676727 
	C169.535095,178.081253 169.772278,177.785294 169.768982,177.492050 
	C169.480865,151.909149 169.648071,126.308128 168.659775,100.751831 
	C168.197250,88.791229 161.958145,79.149864 151.062759,72.362534 
	C150.735931,72.175682 150.409103,71.988831 150.083267,71.916542 
M894.376770,360.750397 
	C894.562317,360.460266 894.747864,360.170135 894.964661,359.973907 
	C894.964661,359.973907 894.884216,359.916290 895.591675,359.900208 
	C899.609070,357.801239 902.672607,355.183716 901.000000,350.000000 
	C901.000000,350.000000 900.981873,349.985352 901.717957,349.897644 
	C904.856567,347.575562 905.415222,344.543579 904.054321,340.354675 
	C904.097168,339.914551 904.139954,339.474457 904.935730,338.785278 
	C905.287231,337.088501 905.936462,335.393066 905.944214,333.694733 
	C906.020569,316.944519 906.144348,300.191406 905.886780,283.444794 
	C905.818604,279.010071 907.113342,277.704498 911.491211,277.896912 
	C920.128418,278.276550 928.898682,277.151550 937.051025,280.952637 
	C937.051025,280.952637 937.073975,280.853668 937.276367,281.366364 
	C937.583313,281.550751 937.890259,281.735138 938.695923,282.149384 
	C939.161133,282.702759 939.626282,283.256134 940.041321,284.651306 
	C940.907043,291.254639 941.759827,297.859833 942.691650,304.453827 
	C942.725037,304.690094 943.540161,304.815887 944.122620,305.662323 
	C944.078186,306.112030 944.033752,306.561768 943.411438,307.609619 
	C943.275879,309.576019 943.066833,311.540527 943.016846,313.509094 
	C942.664612,327.384064 942.262634,341.258972 942.108887,355.136475 
	C942.087341,357.078278 943.334229,359.034149 944.136292,361.618378 
	C944.155273,362.268250 944.174316,362.918091 944.209656,364.421021 
	C945.112976,364.941223 946.009949,365.898804 946.920715,365.912170 
	C953.963135,366.015442 961.010742,366.013702 968.048706,365.789948 
	C968.729675,365.768311 969.355774,364.021332 969.971497,363.023407 
	C969.971497,363.023407 970.020935,362.984375 970.604065,362.911163 
	C970.916199,362.593872 971.228333,362.276550 971.540466,361.959259 
	C971.037354,361.644135 970.534180,361.329010 969.881104,360.343079 
	C969.932251,359.890076 969.983398,359.437073 970.351440,358.813324 
	C970.246277,358.547119 970.141113,358.280945 969.895508,357.345428 
	C969.944214,356.894623 969.992920,356.443787 970.760620,355.834686 
	C972.390320,353.664886 973.294678,351.582947 969.909058,349.258362 
	C969.957214,348.504578 970.005371,347.750793 970.723083,346.873413 
	C970.499573,344.920563 970.276001,342.967743 969.893250,340.220947 
	C969.945190,339.146271 969.997131,338.071625 970.823547,336.797180 
	C972.621826,331.436462 973.182190,326.135986 969.908142,320.105896 
	C969.954407,316.732574 970.000671,313.359222 970.588684,309.450623 
	C971.016724,307.882538 971.944031,306.255249 971.766663,304.758911 
	C971.419006,301.825958 974.021606,298.217224 969.894043,295.273926 
	C969.905457,294.520477 969.916931,293.767059 970.456238,292.610168 
	C970.071228,291.083130 969.686218,289.556122 969.166443,287.351318 
	C969.146606,286.891205 969.126709,286.431061 969.618774,285.418793 
	C969.778748,282.637848 971.580505,279.330383 966.988525,277.422821 
	C966.964844,277.009216 966.941162,276.595581 966.975586,275.377106 
	C965.615784,272.941010 964.255981,270.504944 962.975403,268.003998 
	C962.975403,268.003998 962.928955,268.095184 962.965637,267.345398 
	C961.027588,265.545959 959.089539,263.746521 956.609436,261.704285 
	C956.077576,261.122528 955.545715,260.540741 954.737915,259.517731 
	C954.432007,259.368652 954.126038,259.219574 953.387329,258.936493 
	C953.114197,258.762848 952.953491,258.516052 952.856995,257.468872 
	C951.874573,257.003326 950.892090,256.537811 949.985840,256.006378 
	C949.985840,256.006378 949.939209,256.095581 949.872620,255.392792 
	C947.568054,254.602386 945.263489,253.811996 942.161255,252.945267 
	C941.097046,252.876114 940.032837,252.806961 938.298828,252.265900 
	C913.487671,252.181747 888.676514,252.092545 863.865295,252.043243 
	C863.258301,252.042053 862.650391,252.483917 861.436707,252.874252 
	C861.230042,252.902512 861.023376,252.930771 860.053040,253.006821 
	C859.401123,253.776871 858.203857,254.532974 858.183716,255.319138 
	C858.028870,261.377930 857.989075,267.446564 858.203125,273.501892 
	C858.244263,274.665985 859.398621,276.599365 860.315857,276.780975 
	C863.891541,277.488892 867.587830,277.987396 871.221497,277.891510 
	C874.886963,277.794800 876.138367,278.880341 876.088989,282.671478 
	C875.894287,297.620636 876.187256,312.576965 875.921631,327.523956 
	C875.811096,333.748962 874.754028,339.957153 874.015137,346.067383 
	C874.015137,346.067383 874.154114,346.133850 873.248657,346.045349 
	C869.786926,345.735535 866.325195,345.425690 862.991882,345.049835 
	C862.991882,345.049835 862.888367,345.150482 862.889832,344.435028 
	C861.987183,343.426788 861.084534,342.418579 860.181824,341.410370 
	C859.814880,342.330536 859.447937,343.250702 859.013794,344.655121 
	C858.751282,345.240112 858.488770,345.825104 858.167358,346.969360 
	C858.322571,347.299774 858.477783,347.630188 858.695068,348.822571 
	C858.625244,350.539642 858.555481,352.256714 857.940857,354.143494 
	C858.129761,355.104645 858.318726,356.065826 858.700256,357.811066 
	C858.675110,358.886292 858.649963,359.961517 858.397339,361.211365 
	C858.238098,361.498810 858.295471,361.742157 858.669006,362.632202 
	C858.830566,363.068390 858.992065,363.504578 858.612732,364.351227 
	C859.121033,365.190277 859.590515,366.732117 860.143494,366.762634 
	C868.071045,367.200500 876.009399,367.454498 883.947693,367.649200 
	C884.285095,367.657440 884.647095,366.662140 885.403015,365.958221 
	C885.403015,365.958221 885.842529,365.910309 886.647705,365.964722 
	C888.905762,365.750763 891.693115,366.325348 891.880554,362.936615 
	C891.880554,362.936615 891.643616,362.607880 892.345154,362.772675 
	C892.870667,362.143005 893.396118,361.513336 893.972656,360.958710 
	C893.972656,360.958710 893.883667,360.940918 894.376770,360.750397 
M905.105652,93.523659 
	C905.395508,93.707733 905.685364,93.891800 905.994141,94.009460 
	C905.994141,94.009460 905.930054,94.035225 906.160645,94.774864 
	C906.925720,97.443130 908.308655,100.100471 908.356018,102.781425 
	C908.675171,120.833672 908.710876,138.890930 907.921570,156.961273 
	C899.671753,156.961273 891.421936,156.961273 883.225525,156.961273 
	C883.225525,164.657318 883.225525,171.589615 883.225525,178.707031 
	C901.207458,178.707031 918.930847,178.707031 936.892029,178.707031 
	C936.996277,177.155777 937.158691,175.859085 937.159058,174.562332 
	C937.164612,156.921555 937.263062,139.279617 937.088379,121.640457 
	C936.999817,112.691772 937.221924,103.620117 935.839111,94.834541 
	C934.115417,83.882629 929.450012,74.219429 917.276917,69.545364 
	C906.656799,68.800285 896.036743,68.055206 885.113037,67.288826 
	C885.243774,69.710754 885.305481,70.854088 885.189636,72.915482 
	C885.248230,77.943199 885.306824,82.970909 885.208740,88.740570 
	C889.129578,89.153160 893.050415,89.565750 897.380798,90.110947 
	C897.380798,90.110947 897.810669,90.088577 898.269531,90.636383 
	C900.507568,91.432236 902.745667,92.228096 905.002441,93.001427 
	C905.002441,93.001427 904.976501,93.013046 905.105652,93.523659 
M241.796875,94.903114 
	C241.796875,94.903114 241.832062,94.813774 241.275024,95.274696 
	C240.479416,97.840988 239.683792,100.407280 238.314255,103.402847 
	C229.454315,128.438980 220.594376,153.475098 211.569733,178.976639 
	C221.106781,178.976639 229.927338,179.101273 238.735855,178.832230 
	C239.952988,178.795059 241.703293,177.029160 242.199631,175.690231 
	C245.412598,167.023010 248.256287,158.219849 251.390076,149.522141 
	C257.946899,131.323914 264.843903,113.243233 271.051300,94.927902 
	C272.495667,90.666084 271.739807,85.658562 272.003937,80.064087 
	C272.003937,76.134842 272.003937,72.205605 272.003937,68.141655 
	C253.905518,68.141655 236.458557,68.141655 218.497955,67.909477 
	C218.295822,67.601593 218.093704,67.293709 218.042633,66.061600 
	C218.042633,54.484280 218.042633,42.906960 218.042633,31.188215 
	C208.810989,31.188215 200.099701,31.188215 191.281219,31.188215 
	C191.281219,50.957817 191.281219,70.451790 191.281219,89.983902 
	C208.406311,89.983902 225.170975,89.983902 242.355270,90.328606 
	C242.467468,90.848640 242.579666,91.368675 242.245056,92.339821 
	C242.077286,93.168045 241.909515,93.996277 241.796875,94.903114 
M1040.447998,252.963181 
	C1040.130371,253.321487 1039.812744,253.679794 1039.273560,254.942902 
	C1039.336304,260.631561 1039.399048,266.320251 1039.260498,272.712769 
	C1040.126343,273.542694 1040.992188,274.372620 1041.963501,275.132751 
	C1041.963501,275.132751 1041.837402,275.142273 1042.373779,275.825806 
	C1045.180908,275.894135 1048.040894,276.344116 1050.785645,275.963165 
	C1061.329712,274.499725 1071.705322,274.551178 1081.875732,278.188873 
	C1081.875732,278.188873 1081.734619,278.198181 1081.975952,278.678589 
	C1082.308594,278.797485 1082.641113,278.916382 1083.344971,279.605347 
	C1088.343018,283.098511 1090.554688,288.151245 1090.853516,293.994415 
	C1091.125366,299.309631 1090.900879,304.650085 1090.899902,309.979431 
	C1090.898071,320.265137 1090.899414,330.550842 1090.899414,341.517639 
	C1073.879761,341.517639 1057.367065,341.517639 1040.825317,341.517639 
	C1040.825317,349.311462 1040.825317,356.412109 1040.825317,363.607758 
	C1070.822998,363.607758 1100.520142,363.607758 1130.213379,363.607758 
	C1130.213379,356.039581 1130.213379,348.837891 1130.213379,341.217987 
	C1126.648804,341.217987 1123.546265,341.217987 1119.922852,341.217987 
	C1119.922852,338.830780 1119.929443,336.872375 1119.921631,334.914001 
	C1119.855225,318.180023 1120.252197,301.457489 1117.334839,284.829132 
	C1114.335327,267.732544 1104.497681,257.450439 1087.044312,252.946976 
	C1071.697632,252.990524 1056.350830,253.034088 1040.447998,252.963181 
M525.049683,276.542877 
	C525.049683,276.542877 525.448669,276.827484 525.448669,276.827484 
	C525.448669,276.827484 525.938049,276.801300 526.566223,277.116089 
	C533.065796,280.650970 536.379883,285.508636 536.199890,293.516510 
	C535.713684,315.146790 536.031128,336.795135 536.029724,358.436310 
	C536.029602,360.185577 536.029663,361.934875 536.029663,363.539368 
	C546.025879,363.539368 555.234314,363.539368 563.948120,363.539368 
	C563.948120,338.202057 564.916077,313.246155 563.649109,288.404236 
	C562.590576,267.649780 552.928406,257.763123 533.037903,252.968887 
	C518.031433,252.968887 503.024933,252.968887 488.268097,252.968887 
	C488.268097,261.113312 488.268097,268.483093 488.268097,276.173737 
	C500.767487,276.173737 512.866089,276.173737 524.947632,276.061005 
	C524.947632,276.061005 524.840149,276.099091 525.049683,276.542877 
M767.315918,117.939392 
	C766.484131,118.263535 765.652405,118.587685 764.394592,118.894142 
	C764.394592,118.894142 763.987854,119.022171 763.146912,118.964424 
	C762.426025,120.526123 761.092041,122.082481 761.078430,123.650345 
	C760.929321,140.775970 760.978821,157.903397 761.003479,175.030289 
	C761.005310,176.288452 761.232788,177.546295 761.361145,178.863525 
	C770.356750,178.863525 778.980042,178.863525 788.059326,178.863525 
	C788.059326,156.809845 788.059326,134.879562 788.059326,112.210220 
	C785.448914,113.168365 783.110657,114.026604 780.343140,114.902794 
	C780.343140,114.902794 779.945740,115.066330 779.221802,114.951340 
	C778.118530,115.284241 777.015198,115.617142 775.435547,115.999130 
	C775.435547,115.999130 774.977722,116.139854 774.215210,116.048615 
	C772.294189,116.653343 770.373169,117.258072 768.209534,117.765579 
	C768.209534,117.765579 768.020996,117.946526 767.315918,117.939392 
M1005.370667,320.334625 
	C1008.925171,319.523102 1012.479675,318.711578 1016.860657,318.007721 
	C1020.774048,318.180237 1022.309814,316.571472 1022.218506,312.419800 
	C1021.966492,300.973175 1022.155273,289.516876 1022.163269,278.064423 
	C1022.169006,269.828552 1022.164368,261.592712 1022.164368,253.158035 
	C1012.482483,253.158035 1003.435364,253.158035 994.202759,253.158035 
	C994.202759,276.505951 994.202759,299.596161 994.202759,323.143127 
	C998.038574,322.032990 1001.322815,321.082458 1005.370667,320.334625 
M968.906555,137.027359 
	C976.612488,135.332306 984.318481,133.637268 992.880676,131.942032 
	C993.256104,130.306580 993.950562,128.672546 993.957825,127.035461 
	C994.035400,109.578102 994.004272,92.120262 994.002930,74.662552 
	C994.002808,72.560638 994.002869,70.458733 994.002869,68.327873 
	C984.046509,68.327873 974.682800,68.327873 965.203308,68.327873 
	C965.203308,90.774147 965.203308,112.860916 965.071045,135.620361 
	C965.142822,136.067078 965.214600,136.513794 965.417969,137.570511 
	C966.315857,137.395523 967.213684,137.220520 968.906555,137.027359 
M295.303345,68.700752 
	C295.303345,91.661072 295.303345,114.621384 295.303345,138.189499 
	C304.792358,135.976471 313.402954,133.968307 322.884491,131.968216 
	C323.286713,130.687561 324.034393,129.408218 324.039307,128.126053 
	C324.111816,109.046867 324.092865,89.967285 324.062561,70.887848 
	C324.061127,69.970032 323.754761,69.052704 323.611359,68.252190 
	C314.187958,68.252190 305.082367,68.252190 295.303345,68.700752 
M499.315796,110.423035 
	C495.950684,111.262794 492.573242,112.056686 489.223633,112.954277 
	C485.302063,114.005127 479.842865,113.985428 477.924591,116.566246 
	C475.900452,119.289497 477.159363,124.531197 477.165253,128.672379 
	C477.203430,155.455215 477.291168,182.237946 477.178528,209.868439 
	C477.244415,211.139664 477.310303,212.410873 477.376404,213.686615 
	C486.831512,213.686615 495.887115,213.686615 505.020752,213.686615 
	C505.020752,178.714127 505.020752,144.107834 505.020752,108.998047 
	C503.171875,109.480446 501.618469,109.885757 499.315796,110.423035 
M753.692261,253.250885 
	C732.000305,253.136078 710.308411,252.999069 688.616455,252.995682 
	C687.831360,252.995560 687.046021,254.309937 686.102234,255.934708 
	C686.102234,262.207275 686.102234,268.479828 686.102234,275.132782 
	C702.339172,275.132782 717.972656,275.132019 733.606140,275.133057 
	C743.971436,275.133759 753.092529,284.158142 753.104431,294.512268 
	C753.128967,315.840759 753.107849,337.169342 753.105530,358.497864 
	C753.105347,360.246246 753.105530,361.994598 753.105530,363.637878 
	C763.024780,363.637878 772.117004,363.637878 781.198792,363.637878 
	C781.417114,362.860626 781.663147,362.393707 781.662903,361.926880 
	C781.652649,340.453979 782.086731,318.965088 781.348572,297.516571 
	C781.076355,289.607574 778.914185,281.453613 776.038879,274.020691 
	C772.218018,264.143158 765.152161,256.723206 753.692261,253.250885 
M576.730835,94.916260 
	C577.406799,86.002686 578.082764,77.089104 578.773315,67.983215 
	C559.793396,67.983215 542.299744,67.983391 524.806030,67.983170 
	C509.643311,67.982971 494.480194,67.934586 479.318665,68.069099 
	C478.053741,68.080315 476.799683,69.323463 475.391174,70.679665 
	C475.474121,71.135422 475.557098,71.591187 475.358612,72.829903 
	C475.438965,74.202202 475.519348,75.574509 475.334717,77.839294 
	C475.334717,81.752319 475.334717,85.665337 475.334717,89.902573 
	C500.074219,89.902573 524.023071,89.902573 548.520508,89.902573 
	C539.730896,119.686295 531.076965,149.010330 522.235535,178.969666 
	C531.978394,178.969666 540.932678,179.070496 549.878479,178.841705 
	C550.993469,178.813202 552.702271,177.230545 553.058777,176.044296 
	C558.151001,159.101501 563.108521,142.117523 567.989807,125.112289 
	C570.812134,115.280045 573.439575,105.391838 576.730835,94.916260 
M614.637695,276.283447 
	C621.515381,278.174591 627.250305,281.335114 631.229004,287.796173 
	C638.191772,299.102753 638.399902,310.935852 635.041931,323.131866 
	C631.944397,334.382141 624.264709,340.743835 612.673584,341.917450 
	C606.422546,342.550385 600.104248,342.551666 593.813416,342.745667 
	C590.383789,342.851440 586.948242,342.764557 583.418213,342.764557 
	C583.418213,350.269623 583.418213,356.972382 583.418213,363.964081 
	C595.772095,363.964081 607.744629,364.046326 619.715515,363.943909 
	C635.902283,363.805450 648.415588,356.436584 657.336975,343.346252 
	C670.313110,324.306274 670.294189,288.441803 653.611511,269.715973 
	C646.967651,262.258392 639.817627,255.338196 628.626404,253.231903 
	C613.207520,253.231903 597.788635,253.231903 582.343628,253.231903 
	C582.343628,260.957123 582.343628,268.351166 582.343628,275.996216 
	C593.105103,275.996216 603.527405,275.996216 614.637695,276.283447 
M707.562439,90.404594 
	C707.337708,91.833992 707.327454,93.338745 706.855652,94.681343 
	C701.046631,111.212395 695.175232,127.721581 689.309143,144.232574 
	C685.239075,155.688538 681.152222,167.138550 676.933777,178.981812 
	C686.211792,178.981812 694.871704,179.119812 703.518494,178.844788 
	C704.945740,178.799393 707.008179,177.238159 707.586975,175.872910 
	C709.651245,171.003448 711.179382,165.908279 712.951538,160.913147 
	C720.685913,139.112930 728.434692,117.317848 736.731384,94.897476 
	C737.273254,86.074791 737.815125,77.252113 738.374573,68.142860 
	C719.833313,68.142860 702.433716,68.142860 684.576172,67.998131 
	C684.576172,67.998131 684.100342,67.933563 684.013855,67.010475 
	C684.013855,55.096642 684.013855,43.182808 684.013855,31.295185 
	C674.286682,31.295185 665.259583,31.295185 656.332947,31.295185 
	C656.332947,51.090691 656.332947,70.480919 656.332947,90.011246 
	C673.429199,90.011246 690.200562,90.011246 707.562439,90.404594 
M446.618225,253.184494 
	C425.484009,253.086411 404.349762,252.987366 383.215546,252.891632 
	C380.937042,252.881317 378.658478,252.890259 376.218323,252.890259 
	C376.218323,290.124390 376.218323,326.816162 376.218323,363.695129 
	C409.883636,363.695129 443.252655,363.695129 476.770905,363.695129 
	C476.902924,362.812714 477.079498,362.181885 477.079834,361.550903 
	C477.092377,339.074890 477.102783,316.598877 477.048096,294.122986 
	C477.045074,292.881927 476.482330,291.642242 476.300385,289.610199 
	C475.155121,276.197998 469.253174,265.434570 457.930664,258.078217 
	C454.763000,256.020172 450.761841,255.244888 446.618225,253.184494 
M1287.587769,265.119354 
	C1312.581543,253.093140 1327.200073,228.006516 1322.687988,199.220779 
	C1318.802124,174.428833 1304.067505,157.215805 1280.062500,149.552780 
	C1256.643433,142.076706 1235.208130,147.430710 1217.531738,164.429993 
	C1191.289551,189.667023 1192.861206,232.772263 1220.486694,255.881989 
	C1240.527222,272.646606 1262.835571,275.545715 1287.587769,265.119354 
M1352.176880,243.696915 
	C1341.424805,257.142914 1337.226318,272.309601 1338.620483,289.559570 
	C1341.463501,324.737274 1376.831787,353.703247 1417.097046,343.151184 
	C1443.313843,336.280670 1463.621704,309.796753 1462.432861,281.856842 
	C1461.332764,256.000275 1449.192017,237.554398 1426.598755,226.599228 
	C1400.967407,214.170898 1371.777832,221.344482 1352.176880,243.696915 
M1368.377441,189.138184 
	C1381.451782,197.477509 1395.765747,199.572601 1410.808716,197.130173 
	C1447.930298,191.103027 1471.668945,154.281891 1459.456665,116.241508 
	C1449.860840,86.351967 1420.459473,68.934845 1388.299561,74.975288 
	C1359.624634,80.361168 1337.342529,105.702965 1338.149170,137.160492 
	C1338.718018,159.347290 1348.671875,176.873978 1368.377441,189.138184 
M1129.151855,118.626694 
	C1126.899414,109.009148 1125.913208,98.862564 1122.156982,89.873405 
	C1110.961670,63.080612 1077.644165,56.174473 1059.144775,81.532532 
	C1056.158569,85.625885 1053.894043,90.245834 1051.137085,94.890053 
	C1048.947998,86.363434 1046.815552,78.056755 1044.683594,69.752495 
	C1034.756836,69.752495 1025.023926,69.752495 1014.713074,69.752495 
	C1017.112671,77.444687 1018.798523,84.905800 1021.735535,91.836731 
	C1027.888428,106.356575 1027.777588,121.213203 1025.609131,136.354996 
	C1023.607483,150.331665 1021.653442,164.315140 1019.583923,178.964844 
	C1028.968506,178.964844 1037.595215,179.084976 1046.208374,178.798050 
	C1047.178955,178.765717 1048.676636,176.536163 1048.909302,175.153717 
	C1051.374023,160.509491 1053.158569,145.734634 1056.100830,131.192108 
	C1058.343384,120.107544 1060.055420,108.734604 1066.470459,98.836845 
	C1070.200439,93.082085 1075.469238,90.316315 1081.833496,90.379356 
	C1088.444824,90.444847 1093.397461,93.996262 1096.121216,100.299080 
	C1102.215576,114.401825 1103.023682,128.781494 1098.229126,143.368195 
	C1093.394409,158.077148 1084.346924,162.770844 1068.857300,158.291046 
	C1068.857300,162.930923 1068.791870,167.368225 1068.871216,171.802933 
	C1069.028076,180.573563 1067.404419,180.418518 1077.094116,181.619614 
	C1094.157959,183.734756 1109.388672,180.785599 1119.268921,164.939453 
	C1121.964355,160.616425 1124.106079,155.845428 1125.825439,151.038071 
	C1129.458618,140.880585 1129.544434,130.231781 1129.151855,118.626694 
M34.964069,129.118652 
	C34.964069,108.878067 34.964069,88.637482 34.964069,68.341568 
	C24.998419,68.341568 15.630737,68.341568 6.381649,68.341568 
	C6.381649,91.715858 6.381649,114.723000 6.381649,137.996445 
	C15.129646,136.033051 23.466379,134.223022 31.759478,132.231308 
	C32.932156,131.949661 33.892178,130.782578 34.964069,129.118652 
M352.094360,135.502853 
	C352.094360,149.903000 352.094360,164.303131 352.094360,178.657166 
	C361.780548,178.657166 370.687012,178.657166 379.699524,178.657166 
	C379.699524,156.459106 379.699524,134.588287 379.699524,112.285591 
	C376.660461,113.186852 374.023407,114.059128 371.337891,114.740059 
	C368.622528,115.428558 365.834503,115.831451 363.121063,116.526390 
	C352.080261,119.354057 352.086273,119.377678 352.091278,131.009995 
	C352.091797,132.175049 352.092560,133.340118 352.094360,135.502853 
M713.974731,352.478394 
	C713.974731,334.244232 713.974731,316.010071 713.974731,297.404205 
	C704.309509,299.922272 695.279053,302.274933 686.452271,304.574524 
	C686.452271,324.587372 686.452271,344.114044 686.452271,363.651825 
	C695.745667,363.651825 704.645691,363.651825 713.983704,363.651825 
	C713.983704,360.052673 713.983704,356.761261 713.974731,352.478394 
z"/>
<path fill="#92288F" opacity="1.000000" stroke="none" 
	d="
M1601.000000,75.531342 
	C1599.350098,80.221184 1597.944336,84.558022 1596.009033,88.644135 
	C1585.756836,110.292084 1568.818115,122.530029 1544.830566,125.039993 
	C1514.561035,128.207275 1487.361450,108.289330 1479.647949,81.041916 
	C1469.033447,43.547157 1492.893311,6.944816 1530.816040,1.344079 
	C1554.262695,1.000000 1577.525391,1.000000 1601.000000,1.000000 
	C1601.000000,25.687157 1601.000000,50.374920 1601.000000,75.531342 
z"/>
<path fill="#92288F" opacity="1.000000" stroke="none" 
	d="
M1601.000000,222.531357 
	C1598.250488,229.441940 1596.218750,236.317383 1592.633545,242.254593 
	C1571.531738,277.198334 1524.669434,283.231537 1495.486938,254.734512 
	C1484.883301,244.379990 1479.081421,231.560577 1477.594482,216.522125 
	C1474.239990,182.597641 1497.438965,155.842133 1526.147949,149.442581 
	C1559.836304,141.933044 1594.452881,164.723862 1600.665283,198.812347 
	C1601.000000,206.687576 1601.000000,214.375168 1601.000000,222.531357 
z"/>
<path fill="#92288F" opacity="1.000000" stroke="none" 
	d="
M1601.000000,369.531372 
	C1598.845581,375.436310 1597.107910,381.085022 1594.464600,386.272217 
	C1583.017090,408.736755 1559.511597,421.249054 1534.350708,419.600281 
	C1508.953125,417.935974 1486.174072,399.242584 1479.625610,375.360413 
	C1469.692749,339.134949 1490.510132,303.513062 1528.139771,296.312836 
	C1560.717041,290.079376 1593.558838,310.598480 1600.664795,345.824707 
	C1601.000000,353.687592 1601.000000,361.375153 1601.000000,369.531372 
z"/>
<path fill="#902B8D" opacity="1.000000" stroke="none" 
	d="
M1.000000,416.491058 
	C204.112076,416.007385 407.224152,416.016174 610.336243,416.021729 
	C782.956482,416.026428 955.576782,416.027344 1128.197021,416.029938 
	C1130.176270,416.029968 1132.155518,416.029938 1134.904907,416.029938 
	C1134.904907,418.915985 1134.904907,421.506104 1134.952393,424.548096 
	C757.000000,425.000000 379.000000,425.000000 1.000000,425.000000 
	C1.000000,422.313263 1.000000,419.647675 1.000000,416.491058 
z"/>
<path fill="#922F90" opacity="1.000000" stroke="none" 
	d="
M1.000000,12.444164 
	C49.158901,12.032544 97.317802,12.092377 145.476700,12.093229 
	C472.598877,12.099025 799.721069,12.092567 1126.843262,12.088715 
	C1135.235229,12.088615 1135.235229,12.081385 1134.021729,20.434929 
	C1131.564941,20.251213 1129.750732,20.010765 1127.936401,20.010695 
	C752.290955,19.996012 376.645477,19.998278 1.000000,20.000000 
	C1.000000,17.629442 1.000000,15.258885 1.000000,12.444164 
z"/>
<path fill="#872F81" opacity="1.000000" stroke="none" 
	d="
M1.000000,20.250000 
	C376.645477,19.998278 752.290955,19.996012 1127.936401,20.010695 
	C1129.750732,20.010765 1131.564941,20.251213 1133.686035,20.659058 
	C1132.177979,21.066147 1130.363159,21.305159 1128.548218,21.305243 
	C755.667297,21.322327 382.786407,21.322710 9.905495,21.320271 
	C7.240258,21.320253 4.575021,21.274029 1.454892,21.124691 
	C1.000000,21.000000 1.000000,20.500000 1.000000,20.250000 
z"/>
<path fill="#92288F" opacity="1.000000" stroke="none" 
	d="
M1287.230957,265.258179 
	C1262.835571,275.545715 1240.527222,272.646606 1220.486694,255.881989 
	C1192.861206,232.772263 1191.289551,189.667023 1217.531738,164.429993 
	C1235.208130,147.430710 1256.643433,142.076706 1280.062500,149.552780 
	C1304.067505,157.215805 1318.802124,174.428833 1322.687988,199.220779 
	C1327.200073,228.006516 1312.581543,253.093140 1287.230957,265.258179 
z"/>
<path fill="#92288F" opacity="1.000000" stroke="none" 
	d="
M1352.395264,243.414597 
	C1371.777832,221.344482 1400.967407,214.170898 1426.598755,226.599228 
	C1449.192017,237.554398 1461.332764,256.000275 1462.432861,281.856842 
	C1463.621704,309.796753 1443.313843,336.280670 1417.097046,343.151184 
	C1376.831787,353.703247 1341.463501,324.737274 1338.620483,289.559570 
	C1337.226318,272.309601 1341.424805,257.142914 1352.395264,243.414597 
z"/>
<path fill="#92288F" opacity="1.000000" stroke="none" 
	d="
M1368.039795,188.999405 
	C1348.671875,176.873978 1338.718018,159.347290 1338.149170,137.160492 
	C1337.342529,105.702965 1359.624634,80.361168 1388.299561,74.975288 
	C1420.459473,68.934845 1449.860840,86.351967 1459.456665,116.241508 
	C1471.668945,154.281891 1447.930298,191.103027 1410.808716,197.130173 
	C1395.765747,199.572601 1381.451782,197.477509 1368.039795,188.999405 
z"/>
<path fill="#912A8E" opacity="1.000000" stroke="none" 
	d="
M1129.212158,119.108650 
	C1129.544434,130.231781 1129.458618,140.880585 1125.825439,151.038071 
	C1124.106079,155.845428 1121.964355,160.616425 1119.268921,164.939453 
	C1109.388672,180.785599 1094.157959,183.734756 1077.094116,181.619614 
	C1067.404419,180.418518 1069.028076,180.573563 1068.871216,171.802933 
	C1068.791870,167.368225 1068.857300,162.930923 1068.857300,158.291046 
	C1084.346924,162.770844 1093.394409,158.077148 1098.229126,143.368195 
	C1103.023682,128.781494 1102.215576,114.401825 1096.121216,100.299080 
	C1093.397461,93.996262 1088.444824,90.444847 1081.833496,90.379356 
	C1075.469238,90.316315 1070.200439,93.082085 1066.470459,98.836845 
	C1060.055420,108.734604 1058.343384,120.107544 1056.100830,131.192108 
	C1053.158569,145.734634 1051.374023,160.509491 1048.909302,175.153717 
	C1048.676636,176.536163 1047.178955,178.765717 1046.208374,178.798050 
	C1037.595215,179.084976 1028.968506,178.964844 1019.583923,178.964844 
	C1021.653442,164.315140 1023.607483,150.331665 1025.609131,136.354996 
	C1027.777588,121.213203 1027.888428,106.356575 1021.735535,91.836731 
	C1018.798523,84.905800 1017.112671,77.444687 1014.713074,69.752495 
	C1025.023926,69.752495 1034.756836,69.752495 1044.683594,69.752495 
	C1046.815552,78.056755 1048.947998,86.363434 1051.137085,94.890053 
	C1053.894043,90.245834 1056.158569,85.625885 1059.144775,81.532532 
	C1077.644165,56.174473 1110.961670,63.080612 1122.156982,89.873405 
	C1125.913208,98.862564 1126.899414,109.009148 1129.212158,119.108650 
z"/>
<path fill="#92298F" opacity="1.000000" stroke="none" 
	d="
M447.143036,253.881165 
	C450.761841,255.244888 454.763000,256.020172 457.930664,258.078217 
	C469.253174,265.434570 475.155121,276.197998 476.191467,290.520203 
	C476.055939,313.414825 475.985626,335.399658 476.055786,357.383972 
	C476.064972,360.265137 475.579712,362.463287 472.339844,362.618896 
	C467.085327,362.871277 461.816742,363.034912 456.558075,362.958984 
	C439.274933,362.709320 421.994659,362.208496 404.711151,362.071106 
	C397.838593,362.016418 390.963318,362.763367 384.084015,362.955688 
	C378.014282,363.125427 377.010284,362.081512 377.009460,356.341827 
	C377.004974,324.696411 377.003143,293.050964 377.010468,261.405548 
	C377.012146,254.222763 377.247894,254.005066 384.189148,253.993668 
	C405.173767,253.959213 426.158417,253.919083 447.143036,253.881165 
M448.630371,340.375336 
	C448.749023,324.086578 448.895111,307.797882 448.907166,291.509033 
	C448.907806,290.674713 447.758362,289.839569 446.915314,288.294617 
	C445.224335,280.903229 440.764221,275.911163 433.161560,275.417572 
	C423.864807,274.814056 414.499054,275.273865 405.112366,275.273865 
	C405.112366,298.073944 405.112366,319.439270 405.112366,340.979675 
	C419.621552,340.979675 433.842346,340.979675 448.630371,340.375336 
z"/>
<path fill="#922A8F" opacity="1.000000" stroke="none" 
	d="
M885.842529,365.910339 
	C885.842529,365.910309 885.403015,365.958221 884.779541,366.007690 
	C875.580444,368.204437 867.249817,367.457581 859.153625,363.940765 
	C858.992065,363.504578 858.830566,363.068390 858.737183,362.067078 
	C858.805420,361.501953 858.624817,361.036743 858.624878,361.036743 
	C858.649963,359.961517 858.675110,358.886292 858.705933,357.043213 
	C858.636230,355.508179 858.560974,354.740997 858.485657,353.973785 
	C858.555481,352.256714 858.625244,350.539642 858.756592,348.109375 
	C858.620850,347.067474 858.423523,346.738770 858.226257,346.410095 
	C858.488770,345.825104 858.751282,345.240112 859.385254,344.360779 
	C860.800537,344.427826 861.844482,344.789154 862.888367,345.150482 
	C862.888367,345.150482 862.991882,345.049835 863.097168,345.408020 
	C866.789246,347.789307 870.383362,349.593262 874.154114,346.133850 
	C874.154114,346.133850 874.015137,346.067383 874.374634,346.025330 
	C875.459656,344.982269 876.185181,343.981232 877.313477,342.900757 
	C878.147095,341.344177 878.946472,339.868652 878.953064,338.389587 
	C879.037781,319.346344 879.027405,300.302521 878.973083,281.259064 
	C878.969055,279.845276 878.443848,278.432953 878.046692,276.755493 
	C877.624756,276.271393 877.317139,276.051727 876.921143,275.480774 
	C875.347473,275.062347 873.834351,274.778168 872.381104,274.963287 
	C862.875488,276.173645 861.992920,275.449554 861.992615,266.060242 
	C861.992554,264.062988 862.193726,262.041138 861.953186,260.073273 
	C861.349243,255.131546 863.567017,253.876617 868.260559,253.906082 
	C893.224304,254.062866 918.189758,253.926178 943.524048,253.875687 
	C945.908752,254.605377 947.923950,255.350479 949.939209,256.095581 
	C949.939209,256.095581 949.985840,256.006378 950.120239,256.304565 
	C951.138123,257.133850 952.021667,257.664948 952.905212,258.196045 
	C952.953491,258.516052 953.114197,258.762848 953.723145,259.242981 
	C954.377258,259.685944 954.695557,259.822449 955.013916,259.958984 
	C955.545715,260.540741 956.077576,261.122528 957.016724,262.119446 
	C959.259033,264.388123 961.093994,266.241669 962.928955,268.095184 
	C962.928955,268.095184 962.975403,268.003998 963.008911,268.383362 
	C964.334167,271.235779 965.625793,273.708893 966.917480,276.181976 
	C966.941162,276.595581 966.964844,277.009216 967.093628,278.095032 
	C967.834778,281.168518 968.470825,283.569733 969.106873,285.970947 
	C969.126709,286.431061 969.146606,286.891205 969.147583,288.057800 
	C969.395203,290.180756 969.661743,291.597168 969.928345,293.013611 
	C969.916931,293.767059 969.905457,294.520477 969.874573,296.099457 
	C969.919067,301.278625 969.983032,305.632263 970.046997,309.985901 
	C970.000671,313.359222 969.954407,316.732574 969.899780,321.019928 
	C969.943970,326.954956 969.996521,331.975952 970.049072,336.996948 
	C969.997131,338.071625 969.945190,339.146271 969.889893,341.039490 
	C969.942200,343.571014 969.997803,345.284027 970.053467,346.997009 
	C970.005371,347.750793 969.957214,348.504578 969.893799,350.052002 
	C969.932922,352.561401 969.987305,354.277191 970.041626,355.992981 
	C969.992920,356.443787 969.944214,356.894623 969.898193,357.922241 
	C969.945374,358.660706 969.989929,358.822388 970.034485,358.984070 
	C969.983398,359.437073 969.932251,359.890076 969.879272,361.003540 
	C969.925293,362.104126 969.973145,362.544250 970.020935,362.984375 
	C970.020935,362.984375 969.971497,363.023407 969.667542,363.323120 
	C960.973511,363.604523 952.583435,363.586243 944.193359,363.567963 
	C944.174316,362.918091 944.155273,362.268250 944.156433,360.841614 
	C944.114136,342.380371 944.051697,324.695923 943.989319,307.011475 
	C944.033752,306.561768 944.078186,306.112030 944.145386,304.915649 
	C944.051941,297.133636 945.769348,289.731201 940.091431,283.809509 
	C939.626282,283.256134 939.161133,282.702759 938.338074,281.783875 
	C937.678162,281.230133 937.376038,281.041901 937.073975,280.853668 
	C937.073975,280.853668 937.051025,280.952637 936.953247,280.603821 
	C932.213318,275.989685 926.489807,275.765076 920.684692,276.026154 
	C915.065491,276.278870 909.453247,276.685120 903.577881,277.344177 
	C903.240112,298.674530 903.158569,319.684601 903.110168,340.694763 
	C903.109131,341.142517 903.489868,341.591156 903.676270,342.380432 
	C902.767395,345.142731 901.874634,347.564056 900.981873,349.985352 
	C900.981873,349.985352 901.000000,350.000000 900.729492,350.207703 
	C898.600708,353.582367 896.742432,356.749329 894.884155,359.916260 
	C894.884216,359.916290 894.964661,359.973907 894.698975,360.019592 
	C894.250061,360.357147 894.066895,360.649048 893.883667,360.940918 
	C893.883667,360.940918 893.972656,360.958710 893.651978,360.992828 
	C892.768799,361.553925 892.206177,362.080902 891.643616,362.607880 
	C891.643616,362.607880 891.880554,362.936615 891.438843,362.900970 
	C889.278931,363.880310 887.560730,364.895325 885.842529,365.910339 
z"/>
<path fill="#92298F" opacity="1.000000" stroke="none" 
	d="
M146.418152,69.852478 
	C146.418152,69.852478 146.758774,69.853378 147.041458,70.187729 
	C147.654724,70.645081 147.985321,70.768082 148.315903,70.891083 
	C148.315903,70.891083 148.695801,70.902832 148.992844,71.213631 
	C149.541931,71.767403 149.843002,71.887260 150.193115,71.884010 
	C150.193115,71.884010 150.083267,71.916542 150.192795,72.132507 
	C150.638153,72.527939 150.973984,72.707405 151.309814,72.886879 
	C161.958145,79.149864 168.197250,88.791229 168.659775,100.751831 
	C169.648071,126.308128 169.480865,151.909149 169.768982,177.492050 
	C169.772278,177.785294 169.535095,178.081253 169.282684,178.676727 
	C161.181686,178.676727 152.963974,178.676727 144.153397,178.676727 
	C144.153397,176.730515 144.153534,174.952927 144.153381,173.175323 
	C144.151474,152.538239 144.155243,131.901154 144.145264,111.264076 
	C144.139801,99.980034 137.622070,92.157066 126.412529,91.201599 
	C119.171486,90.584396 111.820915,91.252144 103.976120,91.879196 
	C103.143158,93.172699 102.597351,93.932434 102.601379,94.689240 
	C102.698212,112.895485 102.872047,131.101318 102.983162,149.307510 
	C103.004745,152.844620 102.823433,156.382965 102.735703,159.920731 
	C95.753021,180.804611 80.983139,185.907776 62.357204,180.072418 
	C59.755291,179.257263 58.690300,177.983170 58.815491,175.151596 
	C59.048290,169.886047 58.882256,164.602890 58.882256,160.001022 
	C63.722313,160.737000 68.292702,162.279160 72.585190,161.713287 
	C74.612320,161.446045 76.106834,157.138550 78.225967,154.018707 
	C78.731964,152.899261 78.957230,152.423950 78.962585,151.946167 
	C79.185143,132.084503 79.398613,112.222687 79.519791,92.360321 
	C79.522301,91.949036 78.426628,91.531044 77.843285,91.116180 
	C77.843285,91.116180 77.357018,91.026642 76.820854,90.664192 
	C71.828743,90.062500 65.553085,91.490143 63.400883,89.140625 
	C60.986855,86.505287 62.497612,80.430290 61.941040,75.896011 
	C61.334133,70.951645 63.382679,69.855423 68.068726,69.886368 
	C94.183990,70.058861 120.301445,69.898811 146.418152,69.852478 
z"/>
<path fill="#922B8F" opacity="1.000000" stroke="none" 
	d="
M1087.956543,253.148087 
	C1104.497681,257.450439 1114.335327,267.732544 1117.334839,284.829132 
	C1120.252197,301.457489 1119.855225,318.180023 1119.921631,334.914001 
	C1119.929443,336.872375 1119.922852,338.830780 1119.922852,341.217987 
	C1123.546265,341.217987 1126.648804,341.217987 1130.213379,341.217987 
	C1130.213379,348.837891 1130.213379,356.039581 1130.213379,363.607758 
	C1100.520142,363.607758 1070.822998,363.607758 1040.825317,363.607758 
	C1040.825317,356.412109 1040.825317,349.311462 1040.825317,341.517639 
	C1057.367065,341.517639 1073.879761,341.517639 1090.899414,341.517639 
	C1090.899414,330.550842 1090.898071,320.265137 1090.899902,309.979431 
	C1090.900879,304.650085 1091.125366,299.309631 1090.853516,293.994415 
	C1090.554688,288.151245 1088.343018,283.098511 1083.027100,279.088074 
	C1082.384277,278.446564 1082.059448,278.322388 1081.734619,278.198181 
	C1081.734619,278.198181 1081.875732,278.188873 1081.767090,277.880737 
	C1079.751831,276.721375 1077.857056,275.167206 1075.936401,275.134521 
	C1064.573486,274.941284 1053.204346,275.101166 1041.837402,275.142273 
	C1041.837402,275.142273 1041.963501,275.132751 1041.931885,274.840149 
	C1041.087524,273.701324 1040.274780,272.855133 1039.461914,272.008911 
	C1039.399048,266.320251 1039.336304,260.631561 1039.633057,254.484222 
	C1040.323853,254.021912 1040.655396,254.016449 1041.456299,254.006409 
	C1055.522705,254.001450 1069.119873,254.029617 1082.716431,253.959503 
	C1084.464478,253.950500 1086.209961,253.431076 1087.956543,253.148087 
z"/>
<path fill="#92298F" opacity="1.000000" stroke="none" 
	d="
M684.100342,67.933556 
	C684.100342,67.933563 684.576172,67.998131 685.013550,68.397705 
	C687.325745,69.195236 689.197937,69.923332 691.075745,69.937981 
	C704.022949,70.039062 716.975830,70.187637 729.916809,69.886833 
	C734.571472,69.778641 736.411865,70.884567 736.116516,75.857330 
	C735.728516,82.387596 736.121277,88.964226 736.178223,95.520912 
	C728.434692,117.317848 720.685913,139.112930 712.951538,160.913147 
	C711.179382,165.908279 709.651245,171.003448 707.586975,175.872910 
	C707.008179,177.238159 704.945740,178.799393 703.518494,178.844788 
	C694.871704,179.119812 686.211792,178.981812 676.933777,178.981812 
	C681.152222,167.138550 685.239075,155.688538 689.309143,144.232574 
	C695.175232,127.721581 701.046631,111.212395 706.855652,94.681343 
	C707.327454,93.338745 707.337708,91.833992 707.212952,89.853775 
	C706.517456,88.986786 706.168152,88.390800 705.825806,88.394737 
	C691.222473,88.562508 676.616577,88.671158 662.019043,89.075691 
	C658.268738,89.179619 657.176025,87.030220 657.149170,84.285057 
	C656.994690,68.493057 656.993896,52.698372 657.112976,36.905899 
	C657.136047,33.850140 658.404053,31.666012 662.322815,31.916475 
	C667.455811,32.244553 672.631897,32.147453 677.777466,31.937895 
	C681.055725,31.804388 682.124329,32.999279 682.064880,36.246391 
	C681.897583,45.387554 681.916992,54.535606 682.101074,63.676128 
	C682.129944,65.108109 683.402771,66.515038 684.100342,67.933556 
z"/>
<path fill="#92298F" opacity="1.000000" stroke="none" 
	d="
M242.691864,91.888710 
	C242.579666,91.368675 242.467468,90.848640 241.859802,89.860779 
	C239.552780,89.261459 237.741501,89.020599 235.929611,89.015991 
	C222.935120,88.982964 209.940140,88.946320 196.946152,89.034546 
	C193.758591,89.056190 191.928452,88.288498 191.951477,84.608170 
	C192.052567,68.448868 192.025986,52.288513 191.975220,36.128761 
	C191.965820,33.136913 193.271683,31.929354 196.204987,31.976940 
	C201.368073,32.060696 206.544739,32.202591 211.694656,31.926888 
	C215.987137,31.697090 217.204788,33.539536 217.045502,37.545189 
	C216.675873,46.840843 216.568237,56.147579 216.457886,65.451050 
	C216.451889,65.956902 217.391937,66.473976 217.891586,66.985825 
	C218.093704,67.293709 218.295822,67.601593 218.859085,68.408379 
	C220.911346,69.268166 222.600586,69.931526 224.293915,69.942123 
	C237.920380,70.027344 251.548981,70.094528 265.173706,69.918510 
	C268.759308,69.872185 270.289062,70.737778 270.141815,74.618713 
	C270.062195,76.717384 271.334137,78.867332 271.996338,80.994148 
	C271.739807,85.658562 272.495667,90.666084 271.051300,94.927902 
	C264.843903,113.243233 257.946899,131.323914 251.390076,149.522141 
	C248.256287,158.219849 245.412598,167.023010 242.199631,175.690231 
	C241.703293,177.029160 239.952988,178.795059 238.735855,178.832230 
	C229.927338,179.101273 221.106781,178.976639 211.569733,178.976639 
	C220.594376,153.475098 229.454315,128.438980 238.935654,103.037994 
	C240.315384,100.053360 241.073730,97.433563 241.832062,94.813774 
	C241.832062,94.813774 241.796875,94.903114 242.129333,94.875641 
	C242.538483,93.861687 242.615173,92.875198 242.691864,91.888710 
z"/>
<path fill="#91298E" opacity="1.000000" stroke="none" 
	d="
M629.203186,253.890854 
	C639.817627,255.338196 646.967651,262.258392 653.611511,269.715973 
	C670.294189,288.441803 670.313110,324.306274 657.336975,343.346252 
	C648.415588,356.436584 635.902283,363.805450 619.715515,363.943909 
	C607.744629,364.046326 595.772095,363.964081 583.418213,363.964081 
	C583.418213,356.972382 583.418213,350.269623 583.418213,342.764557 
	C586.948242,342.764557 590.383789,342.851440 593.813416,342.745667 
	C600.104248,342.551666 606.422546,342.550385 612.673584,341.917450 
	C624.264709,340.743835 631.944397,334.382141 635.041931,323.131866 
	C638.399902,310.935852 638.191772,299.102753 631.229004,287.796173 
	C627.250305,281.335114 621.515381,278.174591 614.005737,275.843658 
	C605.245667,275.266785 597.116760,274.998779 588.989990,275.052643 
	C585.399658,275.076447 583.754822,273.913422 583.948486,270.162170 
	C584.145386,266.346802 584.212524,262.496796 583.929016,258.692352 
	C583.645935,254.893906 585.120972,253.873535 588.788757,253.916382 
	C602.258301,254.073761 615.731384,253.924637 629.203186,253.890854 
z"/>
<path fill="#922A8F" opacity="1.000000" stroke="none" 
	d="
M475.640076,72.046951 
	C475.557098,71.591187 475.474121,71.135422 475.896423,70.339348 
	C508.175171,69.996056 539.949036,70.061600 571.721680,69.905762 
	C575.821289,69.885651 577.386536,70.979980 577.062866,75.199158 
	C576.544312,81.959152 576.436218,88.750641 576.154663,95.528816 
	C573.439575,105.391838 570.812134,115.280045 567.989807,125.112289 
	C563.108521,142.117523 558.151001,159.101501 553.058777,176.044296 
	C552.702271,177.230545 550.993469,178.813202 549.878479,178.841705 
	C540.932678,179.070496 531.978394,178.969666 522.235535,178.969666 
	C531.076965,149.010330 539.730896,119.686295 548.520508,89.902573 
	C524.023071,89.902573 500.074219,89.902573 475.334717,89.902573 
	C475.334717,85.665337 475.334717,81.752319 475.755157,77.282883 
	C475.997101,75.166634 475.818573,73.606789 475.640076,72.046951 
z"/>
<path fill="#922B8F" opacity="1.000000" stroke="none" 
	d="
M754.333984,253.869446 
	C765.152161,256.723206 772.218018,264.143158 776.038879,274.020691 
	C778.914185,281.453613 781.076355,289.607574 781.348572,297.516571 
	C782.086731,318.965088 781.652649,340.453979 781.662903,361.926880 
	C781.663147,362.393707 781.417114,362.860626 781.198792,363.637878 
	C772.117004,363.637878 763.024780,363.637878 753.105530,363.637878 
	C753.105530,361.994598 753.105347,360.246246 753.105530,358.497864 
	C753.107849,337.169342 753.128967,315.840759 753.104431,294.512268 
	C753.092529,284.158142 743.971436,275.133759 733.606140,275.133057 
	C717.972656,275.132019 702.339172,275.132782 686.102234,275.132782 
	C686.102234,268.479828 686.102234,262.207275 686.577087,255.400787 
	C689.170166,254.576889 691.287170,254.045441 693.406799,254.034470 
	C713.715637,253.929245 734.024841,253.911957 754.333984,253.869446 
z"/>
<path fill="#922A8F" opacity="1.000000" stroke="none" 
	d="
M437.150787,80.930939 
	C443.154419,87.994194 446.465240,96.449234 446.758514,105.414993 
	C447.535278,129.158859 447.497314,152.929474 447.751617,176.689789 
	C447.758270,177.309677 447.397400,177.933487 447.147888,178.752533 
	C437.972290,178.752533 428.880707,178.752533 419.065338,178.752533 
	C419.065338,176.787277 419.065247,175.022903 419.065338,173.258530 
	C419.066498,153.263138 418.704742,133.258255 419.226959,113.276474 
	C419.476196,103.740822 415.753632,97.039650 408.143524,91.055313 
	C406.061035,89.923515 404.265045,89.067604 402.463409,89.055511 
	C386.315216,88.947083 370.165985,88.987137 354.011047,88.517166 
	C354.004120,82.033302 354.003265,76.015793 354.470947,69.995735 
	C377.794006,69.940414 400.648590,69.887650 423.503143,69.834885 
	C423.503143,69.834885 423.812073,69.811386 424.106750,70.164299 
	C424.786987,70.637993 425.172607,70.758766 425.558197,70.879547 
	C425.558197,70.879547 425.789093,70.768867 426.007874,71.093414 
	C426.529388,71.591637 426.832153,71.765320 427.134888,71.939011 
	C427.134888,71.939011 427.040100,71.951157 427.178467,72.175995 
	C427.869781,72.605766 428.422760,72.810707 428.975708,73.015640 
	C428.975708,73.015648 428.995209,72.996864 429.124084,73.230331 
	C429.553375,73.616684 429.853790,73.769569 430.154236,73.922455 
	C430.154236,73.922447 430.060577,73.939560 430.157745,74.148727 
	C430.548523,74.557892 430.842163,74.757896 431.135773,74.957893 
	C431.665070,75.158203 432.194366,75.358513 432.862305,76.176132 
	C433.734558,77.479057 434.468170,78.164673 435.201782,78.850281 
	C435.201782,78.850273 435.118103,78.898102 435.190063,79.113907 
	C435.555389,79.530556 435.848816,79.731407 436.142212,79.932251 
	C436.142212,79.932251 436.055237,79.945343 436.157623,80.154327 
	C436.556946,80.552528 436.853851,80.741730 437.150787,80.930939 
z"/>
<path fill="#92288F" opacity="1.000000" stroke="none" 
	d="
M853.972046,178.812317 
	C853.522705,178.855942 853.073364,178.899582 852.206543,178.740524 
	C851.474487,178.352722 851.228455,178.435349 851.050842,178.785706 
	C844.657410,178.837570 838.263977,178.889450 831.146729,178.588394 
	C829.951965,176.420029 829.079773,174.606461 829.071228,172.788849 
	C828.974182,152.062302 829.038513,131.335022 828.957458,110.608337 
	C828.950195,108.757484 828.227844,106.909424 827.837646,105.060051 
	C825.944946,102.007317 824.052246,98.954590 821.946167,95.315079 
	C821.418457,94.515244 821.104187,94.302170 820.789917,94.089111 
	C820.789917,94.089119 820.924622,94.080879 820.825195,93.875656 
	C820.406738,93.485847 820.087830,93.301254 819.768860,93.116661 
	C819.768860,93.116661 819.892334,93.138107 819.871704,92.811104 
	C817.499268,91.324547 815.173401,89.228737 812.791260,89.162613 
	C800.502625,88.821518 788.199585,88.999390 775.901550,88.998482 
	C761.820557,88.997437 761.961792,88.997902 761.904480,74.981178 
	C761.888367,71.049118 763.018921,69.866547 766.976807,69.904930 
	C786.252991,70.091881 805.532043,70.013718 824.809753,69.944977 
	C826.536255,69.938820 828.260620,69.328064 829.985962,68.998093 
	C839.983826,72.074112 846.176392,79.322220 850.622681,88.261124 
	C852.367554,91.769020 853.381653,95.640427 854.496216,100.025307 
	C854.506958,104.313759 854.948303,107.922508 854.960510,111.532715 
	C855.028137,131.511536 855.026123,151.490845 854.945312,171.469574 
	C854.935425,173.918427 854.311462,176.364807 853.972046,178.812317 
z"/>
<path fill="#922B8F" opacity="1.000000" stroke="none" 
	d="
M533.920715,253.269608 
	C552.928406,257.763123 562.590576,267.649780 563.649109,288.404236 
	C564.916077,313.246155 563.948120,338.202057 563.948120,363.539368 
	C555.234314,363.539368 546.025879,363.539368 536.029663,363.539368 
	C536.029663,361.934875 536.029602,360.185577 536.029724,358.436310 
	C536.031128,336.795135 535.713684,315.146790 536.199890,293.516510 
	C536.379883,285.508636 533.065796,280.650970 526.119568,276.774353 
	C525.434875,276.222748 525.157288,276.111572 524.840149,276.099091 
	C524.840149,276.099091 524.947632,276.061005 524.694763,275.783173 
	C517.497864,275.334045 510.554565,275.062012 503.609650,275.011597 
	C487.073639,274.891449 489.189209,276.808441 488.957672,259.838409 
	C488.895660,255.293533 490.716919,253.794998 495.231323,253.903580 
	C506.354645,254.171066 517.488770,254.027206 528.618042,253.965240 
	C530.386841,253.955399 532.153198,253.512360 533.920715,253.269608 
z"/>
<path fill="#92298F" opacity="1.000000" stroke="none" 
	d="
M885.365417,87.998627 
	C885.306824,82.970909 885.248230,77.943199 885.625977,72.350677 
	C887.858704,71.187622 889.645752,70.107697 891.453003,70.072746 
	C900.249634,69.902626 909.051636,70.012077 917.851746,70.022575 
	C929.450012,74.219429 934.115417,83.882629 935.839111,94.834541 
	C937.221924,103.620117 936.999817,112.691772 937.088379,121.640457 
	C937.263062,139.279617 937.164612,156.921555 937.159058,174.562332 
	C937.158691,175.859085 936.996277,177.155777 936.892029,178.707031 
	C918.930847,178.707031 901.207458,178.707031 883.225525,178.707031 
	C883.225525,171.589615 883.225525,164.657318 883.225525,156.961273 
	C891.421936,156.961273 899.671753,156.961273 908.709229,156.695435 
	C909.612549,137.982910 909.895447,119.533730 909.619873,101.092888 
	C909.587463,98.925117 910.609253,94.514450 905.930054,94.035225 
	C905.930054,94.035225 905.994141,94.009460 905.887756,93.807312 
	C905.513062,93.407784 905.244812,93.210411 904.976501,93.013046 
	C904.976501,93.013046 905.002441,93.001427 904.935181,92.644402 
	C902.515503,91.554451 900.163086,90.821518 897.810669,90.088577 
	C897.810669,90.088577 897.380798,90.110947 896.894409,89.760498 
	C892.727173,88.939568 889.046326,88.469093 885.365417,87.998627 
z"/>
<path fill="#922A8F" opacity="1.000000" stroke="none" 
	d="
M477.362671,209.020721 
	C477.291168,182.237946 477.203430,155.455215 477.165253,128.672379 
	C477.159363,124.531197 475.900452,119.289497 477.924591,116.566246 
	C479.842865,113.985428 485.302063,114.005127 489.223633,112.954277 
	C492.573242,112.056686 495.950684,111.262794 499.991058,110.575455 
	C502.968811,110.939461 504.065155,111.887276 504.057892,114.511658 
	C503.970306,146.075836 503.979034,177.640381 504.037994,209.204681 
	C504.043091,211.938187 503.182739,213.138565 500.324432,213.035995 
	C496.010559,212.881210 491.682281,212.861755 487.369293,213.025833 
	C483.372589,213.177872 479.531982,213.283035 477.362671,209.020721 
z"/>
<path fill="#912A8E" opacity="1.000000" stroke="none" 
	d="
M34.957348,129.571991 
	C33.892178,130.782578 32.932156,131.949661 31.759478,132.231308 
	C23.466379,134.223022 15.129646,136.033051 6.381649,137.996445 
	C6.381649,114.723000 6.381649,91.715858 6.381649,68.341568 
	C15.630737,68.341568 24.998419,68.341568 34.964069,68.341568 
	C34.964069,88.637482 34.964069,108.878067 34.957348,129.571991 
z"/>
<path fill="#922B8F" opacity="1.000000" stroke="none" 
	d="
M322.013550,131.960144 
	C313.402954,133.968307 304.792358,135.976471 295.303345,138.189499 
	C295.303345,114.621384 295.303345,91.661072 295.739349,68.817596 
	C302.777100,69.286461 309.375183,69.780281 315.981628,69.951721 
	C322.981384,70.133369 322.988586,69.999535 322.989746,76.775444 
	C322.992432,92.558022 323.035492,108.340836 322.947723,124.122925 
	C322.933167,126.736977 322.339569,129.347809 322.013550,131.960144 
z"/>
<path fill="#92288F" opacity="1.000000" stroke="none" 
	d="
M965.286377,136.960510 
	C965.214600,136.513794 965.142822,136.067078 965.384766,134.959290 
	C965.797668,114.519371 965.891663,94.740494 965.999695,74.961700 
	C966.027161,69.941856 967.761597,68.515717 972.620178,69.075409 
	C974.843018,69.331482 977.161377,69.405128 979.364685,69.078217 
	C991.831909,67.228416 992.987793,68.165680 992.987793,80.679268 
	C992.987793,86.167732 993.087158,91.658363 992.967224,97.144203 
	C992.713623,108.744865 992.345520,120.343025 992.024414,131.942215 
	C984.318481,133.637268 976.612488,135.332306 968.156311,137.015152 
	C966.699524,136.988800 965.992920,136.974655 965.286377,136.960510 
z"/>
<path fill="#912A8E" opacity="1.000000" stroke="none" 
	d="
M352.093781,135.004013 
	C352.092560,133.340118 352.091797,132.175049 352.091278,131.009995 
	C352.086273,119.377678 352.080261,119.354057 363.121063,116.526390 
	C365.834503,115.831451 368.622528,115.428558 371.337891,114.740059 
	C374.023407,114.059128 376.660461,113.186852 379.699524,112.285591 
	C379.699524,134.588287 379.699524,156.459106 379.699524,178.657166 
	C370.687012,178.657166 361.780548,178.657166 352.094360,178.657166 
	C352.094360,164.303131 352.094360,149.903000 352.093781,135.004013 
z"/>
<path fill="#902B8D" opacity="1.000000" stroke="none" 
	d="
M713.979248,352.974121 
	C713.983704,356.761261 713.983704,360.052673 713.983704,363.651825 
	C704.645691,363.651825 695.745667,363.651825 686.452271,363.651825 
	C686.452271,344.114044 686.452271,324.587372 686.452271,304.574524 
	C695.279053,302.274933 704.309509,299.922272 713.974731,297.404205 
	C713.974731,316.010071 713.974731,334.244232 713.979248,352.974121 
z"/>
<path fill="#92288F" opacity="1.000000" stroke="none" 
	d="
M1016.034180,317.900085 
	C1012.479675,318.711578 1008.925171,319.523102 1004.524231,320.202332 
	C1002.686157,320.134644 1001.600098,319.958496 1000.718750,320.304260 
	C996.192810,322.079803 994.889526,320.470398 994.933777,315.838531 
	C995.113525,297.023438 995.100952,278.204742 994.924927,259.389526 
	C994.888000,255.439056 995.720703,253.602402 1000.108032,253.911621 
	C1005.244751,254.273636 1010.451111,254.312881 1015.581116,253.908112 
	C1020.170105,253.546036 1021.192505,255.310486 1021.079346,259.584259 
	C1020.652710,275.704102 1020.155334,291.844116 1020.599609,307.951324 
	C1020.730652,312.700714 1020.526184,315.911285 1016.034180,317.900085 
z"/>
<path fill="#92288F" opacity="1.000000" stroke="none" 
	d="
M779.945740,115.066322 
	C779.945740,115.066330 780.343140,114.902794 780.972534,114.930389 
	C783.213989,114.813126 784.825928,114.668259 786.339661,114.532219 
	C786.541504,114.850792 786.707886,114.990829 786.708618,115.131729 
	C786.810242,135.067032 786.950134,155.002655 786.843933,174.936966 
	C786.838440,175.962280 784.767578,177.783722 783.574280,177.856537 
	C778.273682,178.179947 772.929138,177.769913 767.626282,178.074661 
	C763.201294,178.328949 761.861633,176.627029 761.919800,172.309555 
	C762.121338,157.349228 761.894592,142.383194 762.084595,127.422562 
	C762.120239,124.614822 763.323425,121.821922 763.987854,119.022171 
	C763.987854,119.022171 764.394592,118.894142 764.966064,118.930389 
	C766.365356,118.626595 767.193176,118.286568 768.020996,117.946533 
	C768.020996,117.946526 768.209534,117.765579 768.758301,117.846527 
	C771.197266,117.331596 773.087463,116.735725 774.977722,116.139854 
	C774.977722,116.139854 775.435547,115.999130 776.039185,115.991791 
	C777.743774,115.678413 778.844788,115.372368 779.945740,115.066322 
z"/>
<path fill="#873B84" opacity="1.000000" stroke="none" 
	d="
M446.880615,253.532837 
	C426.158417,253.919083 405.173767,253.959213 384.189148,253.993668 
	C377.247894,254.005066 377.012146,254.222763 377.010468,261.405548 
	C377.003143,293.050964 377.004974,324.696411 377.009460,356.341827 
	C377.010284,362.081512 378.014282,363.125427 384.084015,362.955688 
	C390.963318,362.763367 397.838593,362.016418 404.711151,362.071106 
	C421.994659,362.208496 439.274933,362.709320 456.558075,362.958984 
	C461.816742,363.034912 467.085327,362.871277 472.339844,362.618896 
	C475.579712,362.463287 476.064972,360.265137 476.055786,357.383972 
	C475.985626,335.399658 476.055939,313.414825 476.131348,290.916046 
	C476.482330,291.642242 477.045074,292.881927 477.048096,294.122986 
	C477.102783,316.598877 477.092377,339.074890 477.079834,361.550903 
	C477.079498,362.181885 476.902924,362.812714 476.770905,363.695129 
	C443.252655,363.695129 409.883636,363.695129 376.218323,363.695129 
	C376.218323,326.816162 376.218323,290.124390 376.218323,252.890259 
	C378.658478,252.890259 380.937042,252.881317 383.215546,252.891632 
	C404.349762,252.987366 425.484009,253.086411 446.880615,253.532837 
z"/>
<path fill="#82357E" opacity="1.000000" stroke="none" 
	d="
M576.442749,95.222534 
	C576.436218,88.750641 576.544312,81.959152 577.062866,75.199158 
	C577.386536,70.979980 575.821289,69.885651 571.721680,69.905762 
	C539.949036,70.061600 508.175171,69.996056 475.971130,69.996643 
	C476.799683,69.323463 478.053741,68.080315 479.318665,68.069099 
	C494.480194,67.934586 509.643311,67.982971 524.806030,67.983170 
	C542.299744,67.983391 559.793396,67.983215 578.773315,67.983215 
	C578.082764,77.089104 577.406799,86.002686 576.442749,95.222534 
z"/>
<path fill="#873B84" opacity="1.000000" stroke="none" 
	d="
M146.128540,69.561226 
	C120.301445,69.898811 94.183990,70.058861 68.068726,69.886368 
	C63.382679,69.855423 61.334133,70.951645 61.941040,75.896011 
	C62.497612,80.430290 60.986855,86.505287 63.400883,89.140625 
	C65.553085,91.490143 71.828743,90.062500 76.598885,90.555351 
	C71.607109,90.808960 66.301140,90.808960 60.558674,90.808960 
	C60.558674,83.344719 60.558674,75.986618 60.558674,68.257034 
	C61.948803,68.163315 63.384968,67.983124 64.821266,67.982079 
	C89.589180,67.964134 114.357231,67.934860 139.124832,68.024200 
	C141.364319,68.032272 143.600952,68.835831 146.128540,69.561226 
z"/>
<path fill="#F8E1F7" opacity="1.000000" stroke="none" 
	d="
M876.910767,342.980164 
	C876.185181,343.981232 875.459656,344.982269 874.430664,346.078125 
	C874.754028,339.957153 875.811096,333.748962 875.921631,327.523956 
	C876.187256,312.576965 875.894287,297.620636 876.088989,282.671478 
	C876.138367,278.880341 874.886963,277.794800 871.221497,277.891510 
	C867.587830,277.987396 863.891541,277.488892 860.315857,276.780975 
	C859.398621,276.599365 858.244263,274.665985 858.203125,273.501892 
	C857.989075,267.446564 858.028870,261.377930 858.183716,255.319138 
	C858.203857,254.532974 859.401123,253.776871 860.375183,253.451263 
	C860.697327,261.110870 860.697327,268.326050 860.697327,275.832062 
	C866.512146,275.832062 871.760803,275.832062 877.009460,275.832062 
	C877.317139,276.051727 877.624756,276.271393 877.984375,277.220093 
	C878.030334,297.377441 878.060364,316.805939 877.969910,336.233887 
	C877.959412,338.484222 877.280029,340.731476 876.910767,342.980164 
z"/>
<path fill="#82357E" opacity="1.000000" stroke="none" 
	d="
M829.708557,68.680710 
	C828.260620,69.328064 826.536255,69.938820 824.809753,69.944977 
	C805.532043,70.013718 786.252991,70.091881 766.976807,69.904930 
	C763.018921,69.866547 761.888367,71.049118 761.904480,74.981178 
	C761.961792,88.997902 761.820557,88.997437 775.901550,88.998482 
	C788.199585,88.999390 800.502625,88.821518 812.791260,89.162613 
	C815.173401,89.228737 817.499268,91.324547 819.840820,92.865616 
	C815.427002,89.897392 810.324280,90.117424 805.163696,90.156792 
	C790.676880,90.267311 776.188599,90.195335 761.353333,90.195335 
	C761.353333,82.892845 761.353333,75.809853 761.353333,68.407738 
	C761.945862,68.292595 762.712585,68.014343 763.479675,68.013367 
	C784.476135,67.986763 805.472656,67.983292 826.469116,68.001427 
	C827.456604,68.002274 828.443787,68.237335 829.708557,68.680710 
z"/>
<path fill="#873B84" opacity="1.000000" stroke="none" 
	d="
M684.057129,67.472015 
	C683.402771,66.515038 682.129944,65.108109 682.101074,63.676128 
	C681.916992,54.535606 681.897583,45.387554 682.064880,36.246391 
	C682.124329,32.999279 681.055725,31.804388 677.777466,31.937895 
	C672.631897,32.147453 667.455811,32.244553 662.322815,31.916475 
	C658.404053,31.666012 657.136047,33.850140 657.112976,36.905899 
	C656.993896,52.698372 656.994690,68.493057 657.149170,84.285057 
	C657.176025,87.030220 658.268738,89.179619 662.019043,89.075691 
	C676.616577,88.671158 691.222473,88.562508 705.825806,88.394737 
	C706.168152,88.390800 706.517456,88.986786 706.917725,89.657097 
	C690.200562,90.011246 673.429199,90.011246 656.332947,90.011246 
	C656.332947,70.480919 656.332947,51.090691 656.332947,31.295185 
	C665.259583,31.295185 674.286682,31.295185 684.013855,31.295185 
	C684.013855,43.182808 684.013855,55.096642 684.057129,67.472015 
z"/>
<path fill="#873B84" opacity="1.000000" stroke="none" 
	d="
M763.567383,118.993301 
	C763.323425,121.821922 762.120239,124.614822 762.084595,127.422562 
	C761.894592,142.383194 762.121338,157.349228 761.919800,172.309555 
	C761.861633,176.627029 763.201294,178.328949 767.626282,178.074661 
	C772.929138,177.769913 778.273682,178.179947 783.574280,177.856537 
	C784.767578,177.783722 786.838440,175.962280 786.843933,174.936966 
	C786.950134,155.002655 786.810242,135.067032 786.708618,115.131729 
	C786.707886,114.990829 786.541504,114.850792 786.339661,114.532219 
	C784.825928,114.668259 783.213989,114.813126 781.187256,114.921417 
	C783.110657,114.026604 785.448914,113.168365 788.059326,112.210220 
	C788.059326,134.879562 788.059326,156.809845 788.059326,178.863525 
	C778.980042,178.863525 770.356750,178.863525 761.361145,178.863525 
	C761.232788,177.546295 761.005310,176.288452 761.003479,175.030289 
	C760.978821,157.903397 760.929321,140.775970 761.078430,123.650345 
	C761.092041,122.082481 762.426025,120.526123 763.567383,118.993301 
z"/>
<path fill="#F8E1F7" opacity="1.000000" stroke="none" 
	d="
M903.837952,277.023926 
	C909.453247,276.685120 915.065491,276.278870 920.684692,276.026154 
	C926.489807,275.765076 932.213318,275.989685 936.994385,280.574097 
	C928.898682,277.151550 920.128418,278.276550 911.491211,277.896912 
	C907.113342,277.704498 905.818604,279.010071 905.886780,283.444794 
	C906.144348,300.191406 906.020569,316.944519 905.944214,333.694733 
	C905.936462,335.393066 905.287231,337.088501 904.484985,338.442810 
	C903.968750,317.741516 903.903381,297.382721 903.837952,277.023926 
z"/>
<path fill="#82357E" opacity="1.000000" stroke="none" 
	d="
M1016.447388,317.953918 
	C1020.526184,315.911285 1020.730652,312.700714 1020.599609,307.951324 
	C1020.155334,291.844116 1020.652710,275.704102 1021.079346,259.584259 
	C1021.192505,255.310486 1020.170105,253.546036 1015.581116,253.908112 
	C1010.451111,254.312881 1005.244751,254.273636 1000.108032,253.911621 
	C995.720703,253.602402 994.888000,255.439056 994.924927,259.389526 
	C995.100952,278.204742 995.113525,297.023438 994.933777,315.838531 
	C994.889526,320.470398 996.192810,322.079803 1000.718750,320.304260 
	C1001.600098,319.958496 1002.686157,320.134644 1004.142456,320.100983 
	C1001.322815,321.082458 998.038574,322.032990 994.202759,323.143127 
	C994.202759,299.596161 994.202759,276.505951 994.202759,253.158035 
	C1003.435364,253.158035 1012.482483,253.158035 1022.164368,253.158035 
	C1022.164368,261.592712 1022.169006,269.828552 1022.163269,278.064423 
	C1022.155273,289.516876 1021.966492,300.973175 1022.218506,312.419800 
	C1022.309814,316.571472 1020.774048,318.180237 1016.447388,317.953918 
z"/>
<path fill="#82357E" opacity="1.000000" stroke="none" 
	d="
M217.967102,66.523712 
	C217.391937,66.473976 216.451889,65.956902 216.457886,65.451050 
	C216.568237,56.147579 216.675873,46.840843 217.045502,37.545189 
	C217.204788,33.539536 215.987137,31.697090 211.694656,31.926888 
	C206.544739,32.202591 201.368073,32.060696 196.204987,31.976940 
	C193.271683,31.929354 191.965820,33.136913 191.975220,36.128761 
	C192.025986,52.288513 192.052567,68.448868 191.951477,84.608170 
	C191.928452,88.288498 193.758591,89.056190 196.946152,89.034546 
	C209.940140,88.946320 222.935120,88.982964 235.929611,89.015991 
	C237.741501,89.020599 239.552780,89.261459 241.649994,89.688431 
	C225.170975,89.983902 208.406311,89.983902 191.281219,89.983902 
	C191.281219,70.451790 191.281219,50.957817 191.281219,31.188215 
	C200.099701,31.188215 208.810989,31.188215 218.042633,31.188215 
	C218.042633,42.906960 218.042633,54.484280 217.967102,66.523712 
z"/>
<path fill="#873B84" opacity="1.000000" stroke="none" 
	d="
M992.452515,131.942123 
	C992.345520,120.343025 992.713623,108.744865 992.967224,97.144203 
	C993.087158,91.658363 992.987793,86.167732 992.987793,80.679268 
	C992.987793,68.165680 991.831909,67.228416 979.364685,69.078217 
	C977.161377,69.405128 974.843018,69.331482 972.620178,69.075409 
	C967.761597,68.515717 966.027161,69.941856 965.999695,74.961700 
	C965.891663,94.740494 965.797668,114.519371 965.450928,134.622955 
	C965.203308,112.860916 965.203308,90.774147 965.203308,68.327873 
	C974.682800,68.327873 984.046509,68.327873 994.002869,68.327873 
	C994.002869,70.458733 994.002808,72.560638 994.002930,74.662552 
	C994.004272,92.120262 994.035400,109.578102 993.957825,127.035461 
	C993.950562,128.672546 993.256104,130.306580 992.452515,131.942123 
z"/>
<path fill="#873B84" opacity="1.000000" stroke="none" 
	d="
M736.454834,95.209198 
	C736.121277,88.964226 735.728516,82.387596 736.116516,75.857330 
	C736.411865,70.884567 734.571472,69.778641 729.916809,69.886833 
	C716.975830,70.187637 704.022949,70.039062 691.075745,69.937981 
	C689.197937,69.923332 687.325745,69.195236 685.242493,68.470078 
	C702.433716,68.142860 719.833313,68.142860 738.374573,68.142860 
	C737.815125,77.252113 737.273254,86.074791 736.454834,95.209198 
z"/>
<path fill="#82357E" opacity="1.000000" stroke="none" 
	d="
M477.270599,209.444580 
	C479.531982,213.283035 483.372589,213.177872 487.369293,213.025833 
	C491.682281,212.861755 496.010559,212.881210 500.324432,213.035995 
	C503.182739,213.138565 504.043091,211.938187 504.037994,209.204681 
	C503.979034,177.640381 503.970306,146.075836 504.057892,114.511658 
	C504.065155,111.887276 502.968811,110.939461 500.365692,110.509468 
	C501.618469,109.885757 503.171875,109.480446 505.020752,108.998047 
	C505.020752,144.107834 505.020752,178.714127 505.020752,213.686615 
	C495.887115,213.686615 486.831512,213.686615 477.376404,213.686615 
	C477.310303,212.410873 477.244415,211.139664 477.270599,209.444580 
z"/>
<path fill="#873B84" opacity="1.000000" stroke="none" 
	d="
M423.203796,69.542290 
	C400.648590,69.887650 377.794006,69.940414 354.233551,70.166031 
	C353.122498,71.204926 352.717316,72.070961 352.312164,72.937004 
	C352.238037,71.472443 352.163910,70.007889 352.060699,67.968475 
	C353.993439,67.968475 355.614929,67.968529 357.236450,67.968475 
	C376.708679,67.967812 396.181122,67.922585 415.652802,68.023148 
	C418.072083,68.035652 420.487366,68.821945 423.203796,69.542290 
z"/>
<path fill="#82357E" opacity="1.000000" stroke="none" 
	d="
M272.000122,80.529114 
	C271.334137,78.867332 270.062195,76.717384 270.141815,74.618713 
	C270.289062,70.737778 268.759308,69.872185 265.173706,69.918510 
	C251.548981,70.094528 237.920380,70.027344 224.293915,69.942123 
	C222.600586,69.931526 220.911346,69.268166 219.115906,68.524467 
	C236.458557,68.141655 253.905518,68.141655 272.003937,68.141655 
	C272.003937,72.205605 272.003937,76.134842 272.000122,80.529114 
z"/>
<path fill="#82357E" opacity="1.000000" stroke="none" 
	d="
M628.914795,253.561371 
	C615.731384,253.924637 602.258301,254.073761 588.788757,253.916382 
	C585.120972,253.873535 583.645935,254.893906 583.929016,258.692352 
	C584.212524,262.496796 584.145386,266.346802 583.948486,270.162170 
	C583.754822,273.913422 585.399658,275.076447 588.989990,275.052643 
	C597.116760,274.998779 605.245667,275.266785 613.661682,275.700043 
	C603.527405,275.996216 593.105103,275.996216 582.343628,275.996216 
	C582.343628,268.351166 582.343628,260.957123 582.343628,253.231903 
	C597.788635,253.231903 613.207520,253.231903 628.914795,253.561371 
z"/>
<path fill="#82357E" opacity="1.000000" stroke="none" 
	d="
M876.921143,275.480774 
	C871.760803,275.832062 866.512146,275.832062 860.697327,275.832062 
	C860.697327,268.326050 860.697327,261.110870 860.757019,253.427368 
	C861.023376,252.930771 861.230042,252.902512 862.197571,252.888519 
	C888.295166,252.847778 913.631897,252.792801 938.968628,252.737823 
	C940.032837,252.806961 941.097046,252.876114 942.612549,253.200134 
	C943.063904,253.455002 943.154663,253.891098 943.154663,253.891098 
	C918.189758,253.926178 893.224304,254.062866 868.260559,253.906082 
	C863.567017,253.876617 861.349243,255.131546 861.953186,260.073273 
	C862.193726,262.041138 861.992554,264.062988 861.992615,266.060242 
	C861.992920,275.449554 862.875488,276.173645 872.381104,274.963287 
	C873.834351,274.778168 875.347473,275.062347 876.921143,275.480774 
z"/>
<path fill="#82357E" opacity="1.000000" stroke="none" 
	d="
M322.449036,131.964172 
	C322.339569,129.347809 322.933167,126.736977 322.947723,124.122925 
	C323.035492,108.340836 322.992432,92.558022 322.989746,76.775444 
	C322.988586,69.999535 322.981384,70.133369 315.981628,69.951721 
	C309.375183,69.780281 302.777100,69.286461 296.076050,68.593323 
	C305.082367,68.252190 314.187958,68.252190 323.611359,68.252190 
	C323.754761,69.052704 324.061127,69.970032 324.062561,70.887848 
	C324.092865,89.967285 324.111816,109.046867 324.039307,128.126053 
	C324.034393,129.408218 323.286713,130.687561 322.449036,131.964172 
z"/>
<path fill="#82357E" opacity="1.000000" stroke="none" 
	d="
M533.479309,253.119247 
	C532.153198,253.512360 530.386841,253.955399 528.618042,253.965240 
	C517.488770,254.027206 506.354645,254.171066 495.231323,253.903580 
	C490.716919,253.794998 488.895660,255.293533 488.957672,259.838409 
	C489.189209,276.808441 487.073639,274.891449 503.609650,275.011597 
	C510.554565,275.062012 517.497864,275.334045 524.703308,275.839539 
	C512.866089,276.173737 500.767487,276.173737 488.268097,276.173737 
	C488.268097,268.483093 488.268097,261.113312 488.268097,252.968887 
	C503.024933,252.968887 518.031433,252.968887 533.479309,253.119247 
z"/>
<path fill="#82357E" opacity="1.000000" stroke="none" 
	d="
M854.403442,178.861755 
	C854.311462,176.364807 854.935425,173.918427 854.945312,171.469574 
	C855.026123,151.490845 855.028137,131.511536 854.960510,111.532715 
	C854.948303,107.922508 854.506958,104.313759 854.486328,100.393967 
	C855.139282,125.749184 855.577942,151.414642 855.950256,177.081085 
	C855.959045,177.685608 855.223328,178.300919 854.403442,178.861755 
z"/>
<path fill="#F8E1F7" opacity="1.000000" stroke="none" 
	d="
M943.700378,307.310547 
	C944.051697,324.695923 944.114136,342.380371 944.085266,360.524170 
	C943.334229,359.034149 942.087341,357.078278 942.108887,355.136475 
	C942.262634,341.258972 942.664612,327.384064 943.016846,313.509094 
	C943.066833,311.540527 943.275879,309.576019 943.700378,307.310547 
z"/>
<path fill="#F8E1F7" opacity="1.000000" stroke="none" 
	d="
M938.633728,252.501862 
	C913.631897,252.792801 888.295166,252.847778 862.500671,252.810959 
	C862.650391,252.483917 863.258301,252.042053 863.865295,252.043243 
	C888.676514,252.092545 913.487671,252.181747 938.633728,252.501862 
z"/>
<path fill="#82357E" opacity="1.000000" stroke="none" 
	d="
M827.858154,105.523758 
	C828.227844,106.909424 828.950195,108.757484 828.957458,110.608337 
	C829.038513,131.335022 828.974182,152.062302 829.071228,172.788849 
	C829.079773,174.606461 829.951965,176.420029 830.680115,178.510864 
	C827.004578,179.718597 828.003479,176.779297 827.999695,174.880081 
	C827.957275,153.745224 827.974182,132.610260 827.967163,111.475334 
	C827.966553,109.646034 827.909546,107.816757 827.858154,105.523758 
z"/>
<path fill="#873B84" opacity="1.000000" stroke="none" 
	d="
M906.045349,94.405045 
	C910.609253,94.514450 909.587463,98.925117 909.619873,101.092888 
	C909.895447,119.533730 909.612549,137.982910 909.167725,156.688080 
	C908.710876,138.890930 908.675171,120.833672 908.356018,102.781425 
	C908.308655,100.100471 906.925720,97.443130 906.045349,94.405045 
z"/>
<path fill="#872F81" opacity="1.000000" stroke="none" 
	d="
M102.907776,159.535706 
	C102.823433,156.382965 103.004745,152.844620 102.983162,149.307510 
	C102.872047,131.101318 102.698212,112.895485 102.601379,94.689240 
	C102.597351,93.932434 103.143158,93.172699 103.710892,92.215820 
	C104.066032,112.962776 104.165703,133.908234 104.170448,154.853699 
	C104.170769,156.285950 103.459938,157.718369 102.907776,159.535706 
z"/>
<path fill="#82357E" opacity="1.000000" stroke="none" 
	d="
M754.013123,253.560165 
	C734.024841,253.911957 713.715637,253.929245 693.406799,254.034470 
	C691.287170,254.045441 689.170166,254.576889 686.656372,254.939270 
	C687.046021,254.309937 687.831360,252.995560 688.616455,252.995682 
	C710.308411,252.999069 732.000305,253.136078 754.013123,253.560165 
z"/>
<path fill="#82357E" opacity="1.000000" stroke="none" 
	d="
M77.843292,91.575073 
	C78.426628,91.531044 79.522301,91.949036 79.519791,92.360321 
	C79.398613,112.222687 79.185143,132.084503 78.962585,151.946167 
	C78.957230,152.423950 78.731964,152.899261 78.316864,153.667938 
	C77.964073,133.318085 77.903679,112.676033 77.843292,91.575073 
z"/>
<path fill="#873B84" opacity="1.000000" stroke="none" 
	d="
M917.564331,69.783966 
	C909.051636,70.012077 900.249634,69.902626 891.453003,70.072746 
	C889.645752,70.107697 887.858704,71.187622 885.714844,71.891647 
	C885.305481,70.854088 885.243774,69.710754 885.113037,67.288826 
	C896.036743,68.055206 906.656799,68.800285 917.564331,69.783966 
z"/>
<path fill="#82357E" opacity="1.000000" stroke="none" 
	d="
M903.577881,277.344177 
	C903.903381,297.382721 903.968750,317.741516 904.108521,338.567322 
	C904.139954,339.474457 904.097168,339.914551 903.998291,340.943939 
	C903.858948,341.701965 903.775696,341.870697 903.692444,342.039398 
	C903.489868,341.591156 903.109131,341.142517 903.110168,340.694763 
	C903.158569,319.684601 903.240112,298.674530 903.577881,277.344177 
z"/>
<path fill="#872F81" opacity="1.000000" stroke="none" 
	d="
M354.017090,88.983536 
	C370.165985,88.987137 386.315216,88.947083 402.463409,89.055511 
	C404.265045,89.067604 406.061035,89.923515 407.942566,90.802628 
	C405.763275,90.878075 403.502838,90.259155 401.238647,90.245079 
	C385.799133,90.149117 370.358887,90.180359 354.457855,89.837601 
	C353.997162,89.337158 353.997467,89.169678 354.000824,88.999222 
	C354.003845,88.996246 354.017090,88.983536 354.017090,88.983536 
z"/>
<path fill="#873B84" opacity="1.000000" stroke="none" 
	d="
M1042.105591,275.484039 
	C1053.204346,275.101166 1064.573486,274.941284 1075.936401,275.134521 
	C1077.857056,275.167206 1079.751831,276.721375 1081.743042,277.947266 
	C1071.705322,274.551178 1061.329712,274.499725 1050.785645,275.963165 
	C1048.040894,276.344116 1045.180908,275.894135 1042.105591,275.484039 
z"/>
<path fill="#F8E1F7" opacity="1.000000" stroke="none" 
	d="
M944.201538,363.994507 
	C952.583435,363.586243 960.973511,363.604523 969.685425,363.349030 
	C969.355774,364.021332 968.729675,365.768311 968.048706,365.789948 
	C961.010742,366.013702 953.963135,366.015442 946.920715,365.912170 
	C946.009949,365.898804 945.112976,364.941223 944.201538,363.994507 
z"/>
<path fill="#82357E" opacity="1.000000" stroke="none" 
	d="
M1087.500488,253.047546 
	C1086.209961,253.431076 1084.464478,253.950500 1082.716431,253.959503 
	C1069.119873,254.029617 1055.522705,254.001450 1041.460693,253.773468 
	C1040.995605,253.543259 1041.004150,253.077637 1041.004150,253.077637 
	C1056.350830,253.034088 1071.697632,252.990524 1087.500488,253.047546 
z"/>
<path fill="#F8E1F7" opacity="1.000000" stroke="none" 
	d="
M940.066406,284.230408 
	C945.769348,289.731201 944.051941,297.133636 944.079529,304.581055 
	C943.540161,304.815887 942.725037,304.690094 942.691650,304.453827 
	C941.759827,297.859833 940.907043,291.254639 940.066406,284.230408 
z"/>
<path fill="#F8E1F7" opacity="1.000000" stroke="none" 
	d="
M858.883179,364.145996 
	C867.249817,367.457581 875.580444,368.204437 884.576843,366.095764 
	C884.647095,366.662140 884.285095,367.657440 883.947693,367.649200 
	C876.009399,367.454498 868.071045,367.200500 860.143494,366.762634 
	C859.590515,366.732117 859.121033,365.190277 858.883179,364.145996 
z"/>
<path fill="#F8E1F7" opacity="1.000000" stroke="none" 
	d="
M970.436279,336.897064 
	C969.996521,331.975952 969.943970,326.954956 969.973633,321.474396 
	C973.182190,326.135986 972.621826,331.436462 970.436279,336.897064 
z"/>
<path fill="#F8E1F7" opacity="1.000000" stroke="none" 
	d="
M895.237915,359.908234 
	C896.742432,356.749329 898.600708,353.582367 900.721069,350.198914 
	C902.672607,355.183716 899.609070,357.801239 895.237915,359.908234 
z"/>
<path fill="#873B84" opacity="1.000000" stroke="none" 
	d="
M885.287109,88.369598 
	C889.046326,88.469093 892.727173,88.939568 896.689697,89.694191 
	C893.050415,89.565750 889.129578,89.153160 885.287109,88.369598 
z"/>
<path fill="#F8E1F7" opacity="1.000000" stroke="none" 
	d="
M970.317871,309.718262 
	C969.983032,305.632263 969.919067,301.278625 969.947205,296.469727 
	C974.021606,298.217224 971.419006,301.825958 971.766663,304.758911 
	C971.944031,306.255249 971.016724,307.882538 970.317871,309.718262 
z"/>
<path fill="#872F81" opacity="1.000000" stroke="none" 
	d="
M352.246857,73.289856 
	C352.717316,72.070961 353.122498,71.204926 353.765045,70.168587 
	C354.003265,76.015793 354.004120,82.033302 354.011047,88.517166 
	C354.017090,88.983536 354.003845,88.996246 353.579865,88.969070 
	C352.874908,88.927109 352.593903,88.912331 352.312927,88.897560 
	C352.329041,88.530388 352.345154,88.163216 352.649658,87.189270 
	C352.731445,82.743401 352.524841,78.904305 352.318237,75.065201 
	C352.272675,74.591034 352.227112,74.116875 352.246857,73.289856 
z"/>
<path fill="#F8E1F7" opacity="1.000000" stroke="none" 
	d="
M873.701416,346.089600 
	C870.383362,349.593262 866.789246,347.789307 863.032959,345.441040 
	C866.325195,345.425690 869.786926,345.735535 873.701416,346.089600 
z"/>
<path fill="#F8E1F7" opacity="1.000000" stroke="none" 
	d="
M969.362793,285.694885 
	C968.470825,283.569733 967.834778,281.168518 967.218018,278.380463 
	C971.580505,279.330383 969.778748,282.637848 969.362793,285.694885 
z"/>
<path fill="#F8E1F7" opacity="1.000000" stroke="none" 
	d="
M903.676270,342.380432 
	C903.775696,341.870697 903.858948,341.701965 904.052368,341.273193 
	C905.415222,344.543579 904.856567,347.575562 901.349915,349.941498 
	C901.874634,347.564056 902.767395,345.142731 903.676270,342.380432 
z"/>
<path fill="#F8E1F7" opacity="1.000000" stroke="none" 
	d="
M962.947266,267.720276 
	C961.093994,266.241669 959.259033,264.388123 957.287781,262.240845 
	C959.089539,263.746521 961.027588,265.545959 962.947266,267.720276 
z"/>
<path fill="#F8E1F7" opacity="1.000000" stroke="none" 
	d="
M966.946533,275.779541 
	C965.625793,273.708893 964.334167,271.235779 962.969299,268.415771 
	C964.255981,270.504944 965.615784,272.941010 966.946533,275.779541 
z"/>
<path fill="#F8E1F7" opacity="1.000000" stroke="none" 
	d="
M943.524048,253.875687 
	C943.154663,253.891098 943.063904,253.455002 943.011414,253.238297 
	C945.263489,253.811996 947.568054,254.602386 949.905884,255.744186 
	C947.923950,255.350479 945.908752,254.605377 943.524048,253.875687 
z"/>
<path fill="#873B84" opacity="1.000000" stroke="none" 
	d="
M352.223083,75.510895 
	C352.524841,78.904305 352.731445,82.743401 352.908966,87.076202 
	C352.629242,83.698792 352.378601,79.827690 352.223083,75.510895 
z"/>
<path fill="#F8E1F7" opacity="1.000000" stroke="none" 
	d="
M970.401123,355.913818 
	C969.987305,354.277191 969.932922,352.561401 969.966431,350.424316 
	C973.294678,351.582947 972.390320,353.664886 970.401123,355.913818 
z"/>
<path fill="#82357E" opacity="1.000000" stroke="none" 
	d="
M241.553543,95.044235 
	C241.073730,97.433563 240.315384,100.053360 239.222610,102.823364 
	C239.683792,100.407280 240.479416,97.840988 241.553543,95.044235 
z"/>
<path fill="#F8E1F7" opacity="1.000000" stroke="none" 
	d="
M862.889099,344.792755 
	C861.844482,344.789154 860.800537,344.427826 859.418823,344.118652 
	C859.447937,343.250702 859.814880,342.330536 860.181824,341.410370 
	C861.084534,342.418579 861.987183,343.426788 862.889099,344.792755 
z"/>
<path fill="#873B84" opacity="1.000000" stroke="none" 
	d="
M898.040100,90.362488 
	C900.163086,90.821518 902.515503,91.554451 904.925781,92.655663 
	C902.745667,92.228096 900.507568,91.432236 898.040100,90.362488 
z"/>
<path fill="#F8E1F7" opacity="1.000000" stroke="none" 
	d="
M886.245117,365.937531 
	C887.560730,364.895325 889.278931,363.880310 891.305908,362.747986 
	C891.693115,366.325348 888.905762,365.750763 886.245117,365.937531 
z"/>
<path fill="#82357E" opacity="1.000000" stroke="none" 
	d="
M475.499329,72.438431 
	C475.818573,73.606789 475.997101,75.166634 475.887634,76.836639 
	C475.519348,75.574509 475.438965,74.202202 475.499329,72.438431 
z"/>
<path fill="#873B84" opacity="1.000000" stroke="none" 
	d="
M774.596436,116.094238 
	C773.087463,116.735725 771.197266,117.331596 768.879578,117.895134 
	C770.373169,117.258072 772.294189,116.653343 774.596436,116.094238 
z"/>
<path fill="#F8E1F7" opacity="1.000000" stroke="none" 
	d="
M970.192261,292.811890 
	C969.661743,291.597168 969.395203,290.180756 969.214966,288.396698 
	C969.686218,289.556122 970.071228,291.083130 970.192261,292.811890 
z"/>
<path fill="#F8E1F7" opacity="1.000000" stroke="none" 
	d="
M970.388306,346.935211 
	C969.997803,345.284027 969.942200,343.571014 969.969482,341.436462 
	C970.276001,342.967743 970.499573,344.920563 970.388306,346.935211 
z"/>
<path fill="#873B84" opacity="1.000000" stroke="none" 
	d="
M1039.361206,272.360840 
	C1040.274780,272.855133 1041.087524,273.701324 1041.879150,274.875061 
	C1040.992188,274.372620 1040.126343,273.542694 1039.361206,272.360840 
z"/>
<path fill="#82357E" opacity="1.000000" stroke="none" 
	d="
M242.468460,92.114265 
	C242.615173,92.875198 242.538483,93.861687 242.101776,94.836334 
	C241.909515,93.996277 242.077286,93.168045 242.468460,92.114265 
z"/>
<path fill="#F8E1F7" opacity="1.000000" stroke="none" 
	d="
M858.213257,354.058655 
	C858.560974,354.740997 858.636230,355.508179 858.609619,356.651184 
	C858.318726,356.065826 858.129761,355.104645 858.213257,354.058655 
z"/>
<path fill="#873B84" opacity="1.000000" stroke="none" 
	d="
M435.135132,78.545914 
	C434.468170,78.164673 433.734558,77.479057 432.988403,76.435692 
	C433.673370,76.799141 434.370911,77.520348 435.135132,78.545914 
z"/>
<path fill="#F8E1F7" opacity="1.000000" stroke="none" 
	d="
M952.881104,257.832458 
	C952.021667,257.664948 951.138123,257.133850 950.082153,256.337524 
	C950.892090,256.537811 951.874573,257.003326 952.881104,257.832458 
z"/>
<path fill="#F8E1F7" opacity="1.000000" stroke="none" 
	d="
M891.994385,362.690277 
	C892.206177,362.080902 892.768799,361.553925 893.626465,360.955322 
	C893.396118,361.513336 892.870667,362.143005 891.994385,362.690277 
z"/>
<path fill="#F8E1F7" opacity="1.000000" stroke="none" 
	d="
M970.312500,362.947754 
	C969.973145,362.544250 969.925293,362.104126 969.954224,361.338928 
	C970.534180,361.329010 971.037354,361.644135 971.540466,361.959259 
	C971.228333,362.276550 970.916199,362.593872 970.312500,362.947754 
z"/>
<path fill="#873B84" opacity="1.000000" stroke="none" 
	d="
M779.583740,115.008827 
	C778.844788,115.372368 777.743774,115.678413 776.277344,115.967247 
	C777.015198,115.617142 778.118530,115.284241 779.583740,115.008827 
z"/>
<path fill="#873B84" opacity="1.000000" stroke="none" 
	d="
M965.352173,137.265503 
	C965.992920,136.974655 966.699524,136.988800 967.758789,137.024231 
	C967.213684,137.220520 966.315857,137.395523 965.352173,137.265503 
z"/>
<path fill="#873B84" opacity="1.000000" stroke="none" 
	d="
M767.668457,117.942963 
	C767.193176,118.286568 766.365356,118.626595 765.179077,118.939224 
	C765.652405,118.587685 766.484131,118.263535 767.668457,117.942963 
z"/>
<path fill="#873B84" opacity="1.000000" stroke="none" 
	d="
M1040.726074,253.020416 
	C1041.004150,253.077637 1040.995605,253.543259 1040.991211,253.776199 
	C1040.655396,254.016449 1040.323853,254.021912 1039.743896,254.031830 
	C1039.812744,253.679794 1040.130371,253.321487 1040.726074,253.020416 
z"/>
<path fill="#873B84" opacity="1.000000" stroke="none" 
	d="
M428.791870,72.791595 
	C428.422760,72.810707 427.869781,72.605766 427.181030,72.128281 
	C427.566162,72.093002 428.087067,72.330276 428.791870,72.791595 
z"/>
<path fill="#873B84" opacity="1.000000" stroke="none" 
	d="
M352.250610,89.159248 
	C352.593903,88.912331 352.874908,88.927109 353.576843,88.972046 
	C353.997467,89.169678 353.997162,89.337158 353.994629,89.755844 
	C353.391022,89.811684 352.789673,89.616310 352.250610,89.159248 
z"/>
<path fill="#F8E1F7" opacity="1.000000" stroke="none" 
	d="
M970.192993,358.898682 
	C969.989929,358.822388 969.945374,358.660706 969.968384,358.256897 
	C970.141113,358.280945 970.246277,358.547119 970.192993,358.898682 
z"/>
<path fill="#F8E1F7" opacity="1.000000" stroke="none" 
	d="
M894.130249,360.845673 
	C894.066895,360.649048 894.250061,360.357147 894.683289,359.972626 
	C894.747864,360.170135 894.562317,360.460266 894.130249,360.845673 
z"/>
<path fill="#F8E1F7" opacity="1.000000" stroke="none" 
	d="
M858.511108,361.124054 
	C858.624817,361.036743 858.805420,361.501953 858.687378,361.721710 
	C858.295471,361.742157 858.238098,361.498810 858.511108,361.124054 
z"/>
<path fill="#873B84" opacity="1.000000" stroke="none" 
	d="
M150.083969,71.646179 
	C149.843002,71.887260 149.541931,71.767403 149.150452,71.319824 
	C149.332275,71.212929 149.653549,71.310638 150.083969,71.646179 
z"/>
<path fill="#F8E1F7" opacity="1.000000" stroke="none" 
	d="
M858.196777,346.689728 
	C858.423523,346.738770 858.620850,347.067474 858.725586,347.678345 
	C858.477783,347.630188 858.322571,347.299774 858.196777,346.689728 
z"/>
<path fill="#873B84" opacity="1.000000" stroke="none" 
	d="
M427.034424,71.674484 
	C426.832153,71.765320 426.529388,71.591637 426.098450,71.183899 
	C426.291504,71.103218 426.612732,71.256592 427.034424,71.674484 
z"/>
<path fill="#873B84" opacity="1.000000" stroke="none" 
	d="
M905.041077,93.268349 
	C905.244812,93.210411 905.513062,93.407784 905.878296,93.840515 
	C905.685364,93.891800 905.395508,93.707733 905.041077,93.268349 
z"/>
<path fill="#873B84" opacity="1.000000" stroke="none" 
	d="
M151.186279,72.624710 
	C150.973984,72.707405 150.638153,72.527939 150.192291,72.075226 
	C150.409103,71.988831 150.735931,72.175682 151.186279,72.624710 
z"/>
<path fill="#873B84" opacity="1.000000" stroke="none" 
	d="
M430.053131,73.671463 
	C429.853790,73.769569 429.553375,73.616684 429.121582,73.242607 
	C429.310822,73.154434 429.631409,73.287453 430.053131,73.671463 
z"/>
<path fill="#F8E1F7" opacity="1.000000" stroke="none" 
	d="
M937.175171,281.110016 
	C937.376038,281.041901 937.678162,281.230133 938.088745,281.668945 
	C937.890259,281.735138 937.583313,281.550751 937.175171,281.110016 
z"/>
<path fill="#873B84" opacity="1.000000" stroke="none" 
	d="
M1081.855225,278.438416 
	C1082.059448,278.322388 1082.384277,278.446564 1082.841431,278.803040 
	C1082.641113,278.916382 1082.308594,278.797485 1081.855225,278.438416 
z"/>
<path fill="#873B84" opacity="1.000000" stroke="none" 
	d="
M431.035889,74.704277 
	C430.842163,74.757896 430.548523,74.557892 430.160889,74.101227 
	C430.356567,74.046600 430.646271,74.248627 431.035889,74.704277 
z"/>
<path fill="#82357E" opacity="1.000000" stroke="none" 
	d="
M524.944946,276.320984 
	C525.157288,276.111572 525.434875,276.222748 525.805481,276.616974 
	C525.938049,276.801300 525.448669,276.827484 525.448669,276.827484 
	C525.448669,276.827484 525.049683,276.542877 524.944946,276.320984 
z"/>
<path fill="#873B84" opacity="1.000000" stroke="none" 
	d="
M425.375397,70.628448 
	C425.172607,70.758766 424.786987,70.637993 424.214539,70.275589 
	C424.415955,70.148422 424.804291,70.262886 425.375397,70.628448 
z"/>
<path fill="#F8E1F7" opacity="1.000000" stroke="none" 
	d="
M954.875916,259.738342 
	C954.695557,259.822449 954.377258,259.685944 953.939514,259.309998 
	C954.126038,259.219574 954.432007,259.368652 954.875916,259.738342 
z"/>
<path fill="#873B84" opacity="1.000000" stroke="none" 
	d="
M436.053253,79.675568 
	C435.848816,79.731407 435.555389,79.530556 435.184937,79.065979 
	C435.393341,79.007790 435.678833,79.213333 436.053253,79.675568 
z"/>
<path fill="#873B84" opacity="1.000000" stroke="none" 
	d="
M437.053284,80.678810 
	C436.853851,80.741730 436.556946,80.552528 436.161682,80.110550 
	C436.360840,80.047409 436.658325,80.237045 437.053284,80.678810 
z"/>
<path fill="#873B84" opacity="1.000000" stroke="none" 
	d="
M148.168671,70.657959 
	C147.985321,70.768082 147.654724,70.645081 147.165375,70.304565 
	C147.344879,70.199646 147.683167,70.312241 148.168671,70.657959 
z"/>
<path fill="#82357E" opacity="1.000000" stroke="none" 
	d="
M851.276733,178.848877 
	C851.228455,178.435349 851.474487,178.352722 851.873901,178.670456 
	C851.958801,178.803085 851.502563,178.912048 851.276733,178.848877 
z"/>
<path fill="#82357E" opacity="1.000000" stroke="none" 
	d="
M819.862610,93.382797 
	C820.087830,93.301254 820.406738,93.485847 820.814270,93.942253 
	C820.587341,94.025688 820.271851,93.837311 819.862610,93.382797 
z"/>
<path fill="#82357E" opacity="1.000000" stroke="none" 
	d="
M820.884155,94.360992 
	C821.104187,94.302170 821.418457,94.515244 821.816284,95.008018 
	C821.592773,95.069443 821.285583,94.851158 820.884155,94.360992 
z"/>
<path fill="#F7F5F7" opacity="1.000000" stroke="none" 
	d="
M448.063141,340.979675 
	C433.842346,340.979675 419.621552,340.979675 405.112366,340.979675 
	C405.112366,319.439270 405.112366,298.073944 405.112366,275.273865 
	C414.499054,275.273865 423.864807,274.814056 433.161560,275.417572 
	C440.764221,275.911163 445.224335,280.903229 446.985168,289.071777 
	C447.363373,291.936310 447.924988,294.021942 447.939484,296.111359 
	C448.043182,311.067047 448.035461,326.023468 448.063141,340.979675 
z"/>
<path fill="#82357E" opacity="1.000000" stroke="none" 
	d="
M448.346741,340.677490 
	C448.035461,326.023468 448.043182,311.067047 447.939484,296.111359 
	C447.924988,294.021942 447.363373,291.936310 447.099670,289.426880 
	C447.758362,289.839569 448.907806,290.674713 448.907166,291.509033 
	C448.895111,307.797882 448.749023,324.086578 448.346741,340.677490 
z"/>
<path fill="#82357E" opacity="1.000000" stroke="none" 
	d="
M877.313477,342.900757 
	C877.280029,340.731476 877.959412,338.484222 877.969910,336.233887 
	C878.060364,316.805939 878.030334,297.377441 878.098633,277.484558 
	C878.443848,278.432953 878.969055,279.845276 878.973083,281.259064 
	C879.027405,300.302521 879.037781,319.346344 878.953064,338.389587 
	C878.946472,339.868652 878.147095,341.344177 877.313477,342.900757 
z"/>
</svg>